<?xml version="1.0" encoding="utf-8" standalone="no"?>
<!DOCTYPE svg PUBLIC "-//W3C//DTD SVG 1.1//EN"
  "http://www.w3.org/Graphics/SVG/1.1/DTD/svg11.dtd">
<svg xmlns:xlink="http://www.w3.org/1999/xlink" width="5679.36pt" height="2799.36pt" viewBox="0 0 5679.36 2799.36" xmlns="http://www.w3.org/2000/svg" version="1.1">
 <metadata>
  <rdf:RDF xmlns:dc="http://purl.org/dc/elements/1.1/" xmlns:cc="http://creativecommons.org/ns#" xmlns:rdf="http://www.w3.org/1999/02/22-rdf-syntax-ns#">
   <cc:Work>
    <dc:type rdf:resource="http://purl.org/dc/dcmitype/StillImage"/>
    <dc:date>2025-02-24T17:19:40.916218</dc:date>
    <dc:format>image/svg+xml</dc:format>
    <dc:creator>
     <cc:Agent>
      <dc:title>Matplotlib v3.10.0, https://matplotlib.org/</dc:title>
     </cc:Agent>
    </dc:creator>
   </cc:Work>
  </rdf:RDF>
 </metadata>
 <defs>
  <style type="text/css">*{stroke-linejoin: round; stroke-linecap: butt}</style>
 </defs>
 <g id="figure_1">
  <g id="patch_1">
   <path d="M 0 2799.36 
L 5679.36 2799.36 
L 5679.36 0 
L 0 0 
z
" style="fill: #ffffff"/>
  </g>
  <g id="axes_1">
   <g id="patch_2">
    <path d="M 7.2 2792.16 
L 5672.16 2792.16 
L 5672.16 7.2 
L 7.2 7.2 
z
" style="fill: #ffffff"/>
   </g>
   <g id="QuadMesh_1">
    <path d="M 7.2 7.2 
L 321.92 7.2 
L 321.92 161.92 
L 7.2 161.92 
L 7.2 7.2 
" clip-path="url(#pc1b70a07cf)" style="fill: #f0f921"/>
    <path d="M 321.92 7.2 
L 636.64 7.2 
L 636.64 161.92 
L 321.92 161.92 
L 321.92 7.2 
" clip-path="url(#pc1b70a07cf)" style="fill: #9814a0"/>
    <path d="M 636.64 7.2 
L 951.36 7.2 
L 951.36 161.92 
L 636.64 161.92 
L 636.64 7.2 
" clip-path="url(#pc1b70a07cf)" style="fill: #e56b5d"/>
    <path d="M 951.36 7.2 
L 1266.08 7.2 
L 1266.08 161.92 
L 951.36 161.92 
L 951.36 7.2 
" clip-path="url(#pc1b70a07cf)" style="fill: #f07f4f"/>
    <path d="M 1266.08 7.2 
L 1580.8 7.2 
L 1580.8 161.92 
L 1266.08 161.92 
L 1266.08 7.2 
" clip-path="url(#pc1b70a07cf)" style="fill: #f79342"/>
    <path d="M 1580.8 7.2 
L 1895.52 7.2 
L 1895.52 161.92 
L 1580.8 161.92 
L 1580.8 7.2 
" clip-path="url(#pc1b70a07cf)" style="fill: #ad2793"/>
    <path d="M 1895.52 7.2 
L 2210.24 7.2 
L 2210.24 161.92 
L 1895.52 161.92 
L 1895.52 7.2 
" clip-path="url(#pc1b70a07cf)" style="fill: #f0f921"/>
    <path d="M 2210.24 7.2 
L 2524.96 7.2 
L 2524.96 161.92 
L 2210.24 161.92 
L 2210.24 7.2 
" clip-path="url(#pc1b70a07cf)" style="fill: #c5407e"/>
    <path d="M 2524.96 7.2 
L 2839.68 7.2 
L 2839.68 161.92 
L 2524.96 161.92 
L 2524.96 7.2 
" clip-path="url(#pc1b70a07cf)" style="fill: #e3685f"/>
    <path d="M 2839.68 7.2 
L 3154.4 7.2 
L 3154.4 161.92 
L 2839.68 161.92 
L 2839.68 7.2 
" clip-path="url(#pc1b70a07cf)" style="fill: #b12a90"/>
    <path d="M 3154.4 7.2 
L 3469.12 7.2 
L 3469.12 161.92 
L 3154.4 161.92 
L 3154.4 7.2 
" clip-path="url(#pc1b70a07cf)" style="fill: #f89441"/>
    <path d="M 3469.12 7.2 
L 3783.84 7.2 
L 3783.84 161.92 
L 3469.12 161.92 
L 3469.12 7.2 
" clip-path="url(#pc1b70a07cf)" style="fill: #f89441"/>
    <path d="M 3783.84 7.2 
L 4098.56 7.2 
L 4098.56 161.92 
L 3783.84 161.92 
L 3783.84 7.2 
" clip-path="url(#pc1b70a07cf)" style="fill: #5c01a6"/>
    <path d="M 4098.56 7.2 
L 4413.28 7.2 
L 4413.28 161.92 
L 4098.56 161.92 
L 4098.56 7.2 
" clip-path="url(#pc1b70a07cf)" style="fill: #1b068d"/>
    <path d="M 4413.28 7.2 
L 4728 7.2 
L 4728 161.92 
L 4413.28 161.92 
L 4413.28 7.2 
" clip-path="url(#pc1b70a07cf)" style="fill: #f5eb27"/>
    <path d="M 4728 7.2 
L 5042.72 7.2 
L 5042.72 161.92 
L 4728 161.92 
L 4728 7.2 
" clip-path="url(#pc1b70a07cf)" style="fill: #f79143"/>
    <path d="M 5042.72 7.2 
L 5357.44 7.2 
L 5357.44 161.92 
L 5042.72 161.92 
L 5042.72 7.2 
" clip-path="url(#pc1b70a07cf)" style="fill: #cc4977"/>
    <path d="M 5357.44 7.2 
L 5672.16 7.2 
L 5672.16 161.92 
L 5357.44 161.92 
L 5357.44 7.2 
" clip-path="url(#pc1b70a07cf)" style="fill: #ae2892"/>
    <path d="M 7.2 161.92 
L 321.92 161.92 
L 321.92 316.64 
L 7.2 316.64 
L 7.2 161.92 
" clip-path="url(#pc1b70a07cf)" style="fill: #9814a0"/>
    <path d="M 321.92 161.92 
L 636.64 161.92 
L 636.64 316.64 
L 321.92 316.64 
L 321.92 161.92 
" clip-path="url(#pc1b70a07cf)" style="fill: #f0f921"/>
    <path d="M 636.64 161.92 
L 951.36 161.92 
L 951.36 316.64 
L 636.64 316.64 
L 636.64 161.92 
" clip-path="url(#pc1b70a07cf)" style="fill: #6001a6"/>
    <path d="M 951.36 161.92 
L 1266.08 161.92 
L 1266.08 316.64 
L 951.36 316.64 
L 951.36 161.92 
" clip-path="url(#pc1b70a07cf)" style="fill: #8405a7"/>
    <path d="M 1266.08 161.92 
L 1580.8 161.92 
L 1580.8 316.64 
L 1266.08 316.64 
L 1266.08 161.92 
" clip-path="url(#pc1b70a07cf)" style="fill: #5c01a6"/>
    <path d="M 1580.8 161.92 
L 1895.52 161.92 
L 1895.52 316.64 
L 1580.8 316.64 
L 1580.8 161.92 
" clip-path="url(#pc1b70a07cf)" style="fill: #eb7655"/>
    <path d="M 1895.52 161.92 
L 2210.24 161.92 
L 2210.24 316.64 
L 1895.52 316.64 
L 1895.52 161.92 
" clip-path="url(#pc1b70a07cf)" style="fill: #9814a0"/>
    <path d="M 2210.24 161.92 
L 2524.96 161.92 
L 2524.96 316.64 
L 2210.24 316.64 
L 2210.24 161.92 
" clip-path="url(#pc1b70a07cf)" style="fill: #febd2a"/>
    <path d="M 2524.96 161.92 
L 2839.68 161.92 
L 2839.68 316.64 
L 2524.96 316.64 
L 2524.96 161.92 
" clip-path="url(#pc1b70a07cf)" style="fill: #9e199d"/>
    <path d="M 2839.68 161.92 
L 3154.4 161.92 
L 3154.4 316.64 
L 2839.68 316.64 
L 2839.68 161.92 
" clip-path="url(#pc1b70a07cf)" style="fill: #ed7953"/>
    <path d="M 3154.4 161.92 
L 3469.12 161.92 
L 3469.12 316.64 
L 3154.4 316.64 
L 3154.4 161.92 
" clip-path="url(#pc1b70a07cf)" style="fill: #a62098"/>
    <path d="M 3469.12 161.92 
L 3783.84 161.92 
L 3783.84 316.64 
L 3469.12 316.64 
L 3469.12 161.92 
" clip-path="url(#pc1b70a07cf)" style="fill: #a62098"/>
    <path d="M 3783.84 161.92 
L 4098.56 161.92 
L 4098.56 316.64 
L 3783.84 316.64 
L 3783.84 161.92 
" clip-path="url(#pc1b70a07cf)" style="fill: #e26561"/>
    <path d="M 4098.56 161.92 
L 4413.28 161.92 
L 4413.28 316.64 
L 4098.56 316.64 
L 4098.56 161.92 
" clip-path="url(#pc1b70a07cf)" style="fill: #ed7a52"/>
    <path d="M 4413.28 161.92 
L 4728 161.92 
L 4728 316.64 
L 4413.28 316.64 
L 4413.28 161.92 
" clip-path="url(#pc1b70a07cf)" style="fill: #9410a2"/>
    <path d="M 4728 161.92 
L 5042.72 161.92 
L 5042.72 316.64 
L 4728 316.64 
L 4728 161.92 
" clip-path="url(#pc1b70a07cf)" style="fill: #6001a6"/>
    <path d="M 5042.72 161.92 
L 5357.44 161.92 
L 5357.44 316.64 
L 5042.72 316.64 
L 5042.72 161.92 
" clip-path="url(#pc1b70a07cf)" style="fill: #f89540"/>
    <path d="M 5357.44 161.92 
L 5672.16 161.92 
L 5672.16 316.64 
L 5357.44 316.64 
L 5357.44 161.92 
" clip-path="url(#pc1b70a07cf)" style="fill: #feb82c"/>
    <path d="M 7.2 316.64 
L 321.92 316.64 
L 321.92 471.36 
L 7.2 471.36 
L 7.2 316.64 
" clip-path="url(#pc1b70a07cf)" style="fill: #e56b5d"/>
    <path d="M 321.92 316.64 
L 636.64 316.64 
L 636.64 471.36 
L 321.92 471.36 
L 321.92 316.64 
" clip-path="url(#pc1b70a07cf)" style="fill: #6001a6"/>
    <path d="M 636.64 316.64 
L 951.36 316.64 
L 951.36 471.36 
L 636.64 471.36 
L 636.64 316.64 
" clip-path="url(#pc1b70a07cf)" style="fill: #f0f921"/>
    <path d="M 951.36 316.64 
L 1266.08 316.64 
L 1266.08 471.36 
L 951.36 471.36 
L 951.36 316.64 
" clip-path="url(#pc1b70a07cf)" style="fill: #f89540"/>
    <path d="M 1266.08 316.64 
L 1580.8 316.64 
L 1580.8 471.36 
L 1266.08 471.36 
L 1266.08 316.64 
" clip-path="url(#pc1b70a07cf)" style="fill: #f9dd25"/>
    <path d="M 1580.8 316.64 
L 1895.52 316.64 
L 1895.52 471.36 
L 1580.8 471.36 
L 1580.8 316.64 
" clip-path="url(#pc1b70a07cf)" style="fill: #5b01a5"/>
    <path d="M 1895.52 316.64 
L 2210.24 316.64 
L 2210.24 471.36 
L 1895.52 471.36 
L 1895.52 316.64 
" clip-path="url(#pc1b70a07cf)" style="fill: #e56b5d"/>
    <path d="M 2210.24 316.64 
L 2524.96 316.64 
L 2524.96 471.36 
L 2210.24 471.36 
L 2210.24 316.64 
" clip-path="url(#pc1b70a07cf)" style="fill: #8004a8"/>
    <path d="M 2524.96 316.64 
L 2839.68 316.64 
L 2839.68 471.36 
L 2524.96 471.36 
L 2524.96 316.64 
" clip-path="url(#pc1b70a07cf)" style="fill: #fdb52e"/>
    <path d="M 2839.68 316.64 
L 3154.4 316.64 
L 3154.4 471.36 
L 2839.68 471.36 
L 2839.68 316.64 
" clip-path="url(#pc1b70a07cf)" style="fill: #4e02a2"/>
    <path d="M 3154.4 316.64 
L 3469.12 316.64 
L 3469.12 471.36 
L 3154.4 471.36 
L 3154.4 316.64 
" clip-path="url(#pc1b70a07cf)" style="fill: #f1814d"/>
    <path d="M 3469.12 316.64 
L 3783.84 316.64 
L 3783.84 471.36 
L 3469.12 471.36 
L 3469.12 316.64 
" clip-path="url(#pc1b70a07cf)" style="fill: #f1814d"/>
    <path d="M 3783.84 316.64 
L 4098.56 316.64 
L 4098.56 471.36 
L 3783.84 471.36 
L 3783.84 316.64 
" clip-path="url(#pc1b70a07cf)" style="fill: #c23c81"/>
    <path d="M 4098.56 316.64 
L 4413.28 316.64 
L 4413.28 471.36 
L 4098.56 471.36 
L 4098.56 316.64 
" clip-path="url(#pc1b70a07cf)" style="fill: #a72197"/>
    <path d="M 4413.28 316.64 
L 4728 316.64 
L 4728 471.36 
L 4413.28 471.36 
L 4413.28 316.64 
" clip-path="url(#pc1b70a07cf)" style="fill: #e06363"/>
    <path d="M 4728 316.64 
L 5042.72 316.64 
L 5042.72 471.36 
L 4728 471.36 
L 4728 316.64 
" clip-path="url(#pc1b70a07cf)" style="fill: #fcd225"/>
    <path d="M 5042.72 316.64 
L 5357.44 316.64 
L 5357.44 471.36 
L 5042.72 471.36 
L 5042.72 316.64 
" clip-path="url(#pc1b70a07cf)" style="fill: #cd4a76"/>
    <path d="M 5357.44 316.64 
L 5672.16 316.64 
L 5672.16 471.36 
L 5357.44 471.36 
L 5357.44 316.64 
" clip-path="url(#pc1b70a07cf)" style="fill: #a62098"/>
    <path d="M 7.2 471.36 
L 321.92 471.36 
L 321.92 626.08 
L 7.2 626.08 
L 7.2 471.36 
" clip-path="url(#pc1b70a07cf)" style="fill: #f07f4f"/>
    <path d="M 321.92 471.36 
L 636.64 471.36 
L 636.64 626.08 
L 321.92 626.08 
L 321.92 471.36 
" clip-path="url(#pc1b70a07cf)" style="fill: #8405a7"/>
    <path d="M 636.64 471.36 
L 951.36 471.36 
L 951.36 626.08 
L 636.64 626.08 
L 636.64 471.36 
" clip-path="url(#pc1b70a07cf)" style="fill: #f89540"/>
    <path d="M 951.36 471.36 
L 1266.08 471.36 
L 1266.08 626.08 
L 951.36 626.08 
L 951.36 471.36 
" clip-path="url(#pc1b70a07cf)" style="fill: #f0f921"/>
    <path d="M 1266.08 471.36 
L 1580.8 471.36 
L 1580.8 626.08 
L 1266.08 626.08 
L 1266.08 471.36 
" clip-path="url(#pc1b70a07cf)" style="fill: #fbd524"/>
    <path d="M 1580.8 471.36 
L 1895.52 471.36 
L 1895.52 626.08 
L 1580.8 626.08 
L 1580.8 471.36 
" clip-path="url(#pc1b70a07cf)" style="fill: #5601a4"/>
    <path d="M 1895.52 471.36 
L 2210.24 471.36 
L 2210.24 626.08 
L 1895.52 626.08 
L 1895.52 471.36 
" clip-path="url(#pc1b70a07cf)" style="fill: #f07f4f"/>
    <path d="M 2210.24 471.36 
L 2524.96 471.36 
L 2524.96 626.08 
L 2210.24 626.08 
L 2210.24 471.36 
" clip-path="url(#pc1b70a07cf)" style="fill: #7d03a8"/>
    <path d="M 2524.96 471.36 
L 2839.68 471.36 
L 2839.68 626.08 
L 2524.96 626.08 
L 2524.96 471.36 
" clip-path="url(#pc1b70a07cf)" style="fill: #feba2c"/>
    <path d="M 2839.68 471.36 
L 3154.4 471.36 
L 3154.4 626.08 
L 2839.68 626.08 
L 2839.68 471.36 
" clip-path="url(#pc1b70a07cf)" style="fill: #bd3786"/>
    <path d="M 3154.4 471.36 
L 3469.12 471.36 
L 3469.12 626.08 
L 3154.4 626.08 
L 3154.4 471.36 
" clip-path="url(#pc1b70a07cf)" style="fill: #ed7953"/>
    <path d="M 3469.12 471.36 
L 3783.84 471.36 
L 3783.84 626.08 
L 3469.12 626.08 
L 3469.12 471.36 
" clip-path="url(#pc1b70a07cf)" style="fill: #ed7953"/>
    <path d="M 3783.84 471.36 
L 4098.56 471.36 
L 4098.56 626.08 
L 3783.84 626.08 
L 3783.84 471.36 
" clip-path="url(#pc1b70a07cf)" style="fill: #6001a6"/>
    <path d="M 4098.56 471.36 
L 4413.28 471.36 
L 4413.28 626.08 
L 4098.56 626.08 
L 4098.56 471.36 
" clip-path="url(#pc1b70a07cf)" style="fill: #9814a0"/>
    <path d="M 4413.28 471.36 
L 4728 471.36 
L 4728 626.08 
L 4413.28 626.08 
L 4413.28 471.36 
" clip-path="url(#pc1b70a07cf)" style="fill: #f99a3e"/>
    <path d="M 4728 471.36 
L 5042.72 471.36 
L 5042.72 626.08 
L 4728 626.08 
L 4728 471.36 
" clip-path="url(#pc1b70a07cf)" style="fill: #f8e125"/>
    <path d="M 5042.72 471.36 
L 5357.44 471.36 
L 5357.44 626.08 
L 5042.72 626.08 
L 5042.72 471.36 
" clip-path="url(#pc1b70a07cf)" style="fill: #c7427c"/>
    <path d="M 5357.44 471.36 
L 5672.16 471.36 
L 5672.16 626.08 
L 5357.44 626.08 
L 5357.44 471.36 
" clip-path="url(#pc1b70a07cf)" style="fill: #b22b8f"/>
    <path d="M 7.2 626.08 
L 321.92 626.08 
L 321.92 780.8 
L 7.2 780.8 
L 7.2 626.08 
" clip-path="url(#pc1b70a07cf)" style="fill: #f79342"/>
    <path d="M 321.92 626.08 
L 636.64 626.08 
L 636.64 780.8 
L 321.92 780.8 
L 321.92 626.08 
" clip-path="url(#pc1b70a07cf)" style="fill: #5c01a6"/>
    <path d="M 636.64 626.08 
L 951.36 626.08 
L 951.36 780.8 
L 636.64 780.8 
L 636.64 626.08 
" clip-path="url(#pc1b70a07cf)" style="fill: #f9dd25"/>
    <path d="M 951.36 626.08 
L 1266.08 626.08 
L 1266.08 780.8 
L 951.36 780.8 
L 951.36 626.08 
" clip-path="url(#pc1b70a07cf)" style="fill: #fbd524"/>
    <path d="M 1266.08 626.08 
L 1580.8 626.08 
L 1580.8 780.8 
L 1266.08 780.8 
L 1266.08 626.08 
" clip-path="url(#pc1b70a07cf)" style="fill: #f0f921"/>
    <path d="M 1580.8 626.08 
L 1895.52 626.08 
L 1895.52 780.8 
L 1580.8 780.8 
L 1580.8 626.08 
" clip-path="url(#pc1b70a07cf)" style="fill: #3f049c"/>
    <path d="M 1895.52 626.08 
L 2210.24 626.08 
L 2210.24 780.8 
L 1895.52 780.8 
L 1895.52 626.08 
" clip-path="url(#pc1b70a07cf)" style="fill: #f79342"/>
    <path d="M 2210.24 626.08 
L 2524.96 626.08 
L 2524.96 780.8 
L 2210.24 780.8 
L 2210.24 626.08 
" clip-path="url(#pc1b70a07cf)" style="fill: #7a02a8"/>
    <path d="M 2524.96 626.08 
L 2839.68 626.08 
L 2839.68 780.8 
L 2524.96 780.8 
L 2524.96 626.08 
" clip-path="url(#pc1b70a07cf)" style="fill: #fcd025"/>
    <path d="M 2839.68 626.08 
L 3154.4 626.08 
L 3154.4 780.8 
L 2839.68 780.8 
L 2839.68 626.08 
" clip-path="url(#pc1b70a07cf)" style="fill: #6f00a8"/>
    <path d="M 3154.4 626.08 
L 3469.12 626.08 
L 3469.12 780.8 
L 3154.4 780.8 
L 3154.4 626.08 
" clip-path="url(#pc1b70a07cf)" style="fill: #f79044"/>
    <path d="M 3469.12 626.08 
L 3783.84 626.08 
L 3783.84 780.8 
L 3469.12 780.8 
L 3469.12 626.08 
" clip-path="url(#pc1b70a07cf)" style="fill: #f79044"/>
    <path d="M 3783.84 626.08 
L 4098.56 626.08 
L 4098.56 780.8 
L 3783.84 780.8 
L 3783.84 626.08 
" clip-path="url(#pc1b70a07cf)" style="fill: #8004a8"/>
    <path d="M 4098.56 626.08 
L 4413.28 626.08 
L 4413.28 780.8 
L 4098.56 780.8 
L 4098.56 626.08 
" clip-path="url(#pc1b70a07cf)" style="fill: #7a02a8"/>
    <path d="M 4413.28 626.08 
L 4728 626.08 
L 4728 780.8 
L 4413.28 780.8 
L 4413.28 626.08 
" clip-path="url(#pc1b70a07cf)" style="fill: #f99a3e"/>
    <path d="M 4728 626.08 
L 5042.72 626.08 
L 5042.72 780.8 
L 4728 780.8 
L 4728 626.08 
" clip-path="url(#pc1b70a07cf)" style="fill: #f2f227"/>
    <path d="M 5042.72 626.08 
L 5357.44 626.08 
L 5357.44 780.8 
L 5042.72 780.8 
L 5042.72 626.08 
" clip-path="url(#pc1b70a07cf)" style="fill: #ca457a"/>
    <path d="M 5357.44 626.08 
L 5672.16 626.08 
L 5672.16 780.8 
L 5357.44 780.8 
L 5357.44 626.08 
" clip-path="url(#pc1b70a07cf)" style="fill: #a51f99"/>
    <path d="M 7.2 780.8 
L 321.92 780.8 
L 321.92 935.52 
L 7.2 935.52 
L 7.2 780.8 
" clip-path="url(#pc1b70a07cf)" style="fill: #ad2793"/>
    <path d="M 321.92 780.8 
L 636.64 780.8 
L 636.64 935.52 
L 321.92 935.52 
L 321.92 780.8 
" clip-path="url(#pc1b70a07cf)" style="fill: #eb7655"/>
    <path d="M 636.64 780.8 
L 951.36 780.8 
L 951.36 935.52 
L 636.64 935.52 
L 636.64 780.8 
" clip-path="url(#pc1b70a07cf)" style="fill: #5b01a5"/>
    <path d="M 951.36 780.8 
L 1266.08 780.8 
L 1266.08 935.52 
L 951.36 935.52 
L 951.36 780.8 
" clip-path="url(#pc1b70a07cf)" style="fill: #5601a4"/>
    <path d="M 1266.08 780.8 
L 1580.8 780.8 
L 1580.8 935.52 
L 1266.08 935.52 
L 1266.08 780.8 
" clip-path="url(#pc1b70a07cf)" style="fill: #3f049c"/>
    <path d="M 1580.8 780.8 
L 1895.52 780.8 
L 1895.52 935.52 
L 1580.8 935.52 
L 1580.8 780.8 
" clip-path="url(#pc1b70a07cf)" style="fill: #f0f921"/>
    <path d="M 1895.52 780.8 
L 2210.24 780.8 
L 2210.24 935.52 
L 1895.52 935.52 
L 1895.52 780.8 
" clip-path="url(#pc1b70a07cf)" style="fill: #ad2793"/>
    <path d="M 2210.24 780.8 
L 2524.96 780.8 
L 2524.96 935.52 
L 2210.24 935.52 
L 2210.24 780.8 
" clip-path="url(#pc1b70a07cf)" style="fill: #f79143"/>
    <path d="M 2524.96 780.8 
L 2839.68 780.8 
L 2839.68 935.52 
L 2524.96 935.52 
L 2524.96 780.8 
" clip-path="url(#pc1b70a07cf)" style="fill: #0d0887"/>
    <path d="M 2839.68 780.8 
L 3154.4 780.8 
L 3154.4 935.52 
L 2839.68 935.52 
L 2839.68 780.8 
" clip-path="url(#pc1b70a07cf)" style="fill: #feba2c"/>
    <path d="M 3154.4 780.8 
L 3469.12 780.8 
L 3469.12 935.52 
L 3154.4 935.52 
L 3154.4 780.8 
" clip-path="url(#pc1b70a07cf)" style="fill: #ac2694"/>
    <path d="M 3469.12 780.8 
L 3783.84 780.8 
L 3783.84 935.52 
L 3469.12 935.52 
L 3469.12 780.8 
" clip-path="url(#pc1b70a07cf)" style="fill: #ac2694"/>
    <path d="M 3783.84 780.8 
L 4098.56 780.8 
L 4098.56 935.52 
L 3783.84 935.52 
L 3783.84 780.8 
" clip-path="url(#pc1b70a07cf)" style="fill: #f3874a"/>
    <path d="M 4098.56 780.8 
L 4413.28 780.8 
L 4413.28 935.52 
L 4098.56 935.52 
L 4098.56 780.8 
" clip-path="url(#pc1b70a07cf)" style="fill: #ef7c51"/>
    <path d="M 4413.28 780.8 
L 4728 780.8 
L 4728 935.52 
L 4413.28 935.52 
L 4413.28 780.8 
" clip-path="url(#pc1b70a07cf)" style="fill: #ab2494"/>
    <path d="M 4728 780.8 
L 5042.72 780.8 
L 5042.72 935.52 
L 4728 935.52 
L 4728 780.8 
" clip-path="url(#pc1b70a07cf)" style="fill: #5601a4"/>
    <path d="M 5042.72 780.8 
L 5357.44 780.8 
L 5357.44 935.52 
L 5042.72 935.52 
L 5042.72 780.8 
" clip-path="url(#pc1b70a07cf)" style="fill: #b7318a"/>
    <path d="M 5357.44 780.8 
L 5672.16 780.8 
L 5672.16 935.52 
L 5357.44 935.52 
L 5357.44 780.8 
" clip-path="url(#pc1b70a07cf)" style="fill: #d5536f"/>
    <path d="M 7.2 935.52 
L 321.92 935.52 
L 321.92 1090.24 
L 7.2 1090.24 
L 7.2 935.52 
" clip-path="url(#pc1b70a07cf)" style="fill: #f0f921"/>
    <path d="M 321.92 935.52 
L 636.64 935.52 
L 636.64 1090.24 
L 321.92 1090.24 
L 321.92 935.52 
" clip-path="url(#pc1b70a07cf)" style="fill: #9814a0"/>
    <path d="M 636.64 935.52 
L 951.36 935.52 
L 951.36 1090.24 
L 636.64 1090.24 
L 636.64 935.52 
" clip-path="url(#pc1b70a07cf)" style="fill: #e56b5d"/>
    <path d="M 951.36 935.52 
L 1266.08 935.52 
L 1266.08 1090.24 
L 951.36 1090.24 
L 951.36 935.52 
" clip-path="url(#pc1b70a07cf)" style="fill: #f07f4f"/>
    <path d="M 1266.08 935.52 
L 1580.8 935.52 
L 1580.8 1090.24 
L 1266.08 1090.24 
L 1266.08 935.52 
" clip-path="url(#pc1b70a07cf)" style="fill: #f79342"/>
    <path d="M 1580.8 935.52 
L 1895.52 935.52 
L 1895.52 1090.24 
L 1580.8 1090.24 
L 1580.8 935.52 
" clip-path="url(#pc1b70a07cf)" style="fill: #ad2793"/>
    <path d="M 1895.52 935.52 
L 2210.24 935.52 
L 2210.24 1090.24 
L 1895.52 1090.24 
L 1895.52 935.52 
" clip-path="url(#pc1b70a07cf)" style="fill: #f0f921"/>
    <path d="M 2210.24 935.52 
L 2524.96 935.52 
L 2524.96 1090.24 
L 2210.24 1090.24 
L 2210.24 935.52 
" clip-path="url(#pc1b70a07cf)" style="fill: #c5407e"/>
    <path d="M 2524.96 935.52 
L 2839.68 935.52 
L 2839.68 1090.24 
L 2524.96 1090.24 
L 2524.96 935.52 
" clip-path="url(#pc1b70a07cf)" style="fill: #e3685f"/>
    <path d="M 2839.68 935.52 
L 3154.4 935.52 
L 3154.4 1090.24 
L 2839.68 1090.24 
L 2839.68 935.52 
" clip-path="url(#pc1b70a07cf)" style="fill: #b12a90"/>
    <path d="M 3154.4 935.52 
L 3469.12 935.52 
L 3469.12 1090.24 
L 3154.4 1090.24 
L 3154.4 935.52 
" clip-path="url(#pc1b70a07cf)" style="fill: #f89441"/>
    <path d="M 3469.12 935.52 
L 3783.84 935.52 
L 3783.84 1090.24 
L 3469.12 1090.24 
L 3469.12 935.52 
" clip-path="url(#pc1b70a07cf)" style="fill: #f89441"/>
    <path d="M 3783.84 935.52 
L 4098.56 935.52 
L 4098.56 1090.24 
L 3783.84 1090.24 
L 3783.84 935.52 
" clip-path="url(#pc1b70a07cf)" style="fill: #5c01a6"/>
    <path d="M 4098.56 935.52 
L 4413.28 935.52 
L 4413.28 1090.24 
L 4098.56 1090.24 
L 4098.56 935.52 
" clip-path="url(#pc1b70a07cf)" style="fill: #1b068d"/>
    <path d="M 4413.28 935.52 
L 4728 935.52 
L 4728 1090.24 
L 4413.28 1090.24 
L 4413.28 935.52 
" clip-path="url(#pc1b70a07cf)" style="fill: #f5eb27"/>
    <path d="M 4728 935.52 
L 5042.72 935.52 
L 5042.72 1090.24 
L 4728 1090.24 
L 4728 935.52 
" clip-path="url(#pc1b70a07cf)" style="fill: #f79143"/>
    <path d="M 5042.72 935.52 
L 5357.44 935.52 
L 5357.44 1090.24 
L 5042.72 1090.24 
L 5042.72 935.52 
" clip-path="url(#pc1b70a07cf)" style="fill: #cc4977"/>
    <path d="M 5357.44 935.52 
L 5672.16 935.52 
L 5672.16 1090.24 
L 5357.44 1090.24 
L 5357.44 935.52 
" clip-path="url(#pc1b70a07cf)" style="fill: #ae2892"/>
    <path d="M 7.2 1090.24 
L 321.92 1090.24 
L 321.92 1244.96 
L 7.2 1244.96 
L 7.2 1090.24 
" clip-path="url(#pc1b70a07cf)" style="fill: #c5407e"/>
    <path d="M 321.92 1090.24 
L 636.64 1090.24 
L 636.64 1244.96 
L 321.92 1244.96 
L 321.92 1090.24 
" clip-path="url(#pc1b70a07cf)" style="fill: #febd2a"/>
    <path d="M 636.64 1090.24 
L 951.36 1090.24 
L 951.36 1244.96 
L 636.64 1244.96 
L 636.64 1090.24 
" clip-path="url(#pc1b70a07cf)" style="fill: #8004a8"/>
    <path d="M 951.36 1090.24 
L 1266.08 1090.24 
L 1266.08 1244.96 
L 951.36 1244.96 
L 951.36 1090.24 
" clip-path="url(#pc1b70a07cf)" style="fill: #7d03a8"/>
    <path d="M 1266.08 1090.24 
L 1580.8 1090.24 
L 1580.8 1244.96 
L 1266.08 1244.96 
L 1266.08 1090.24 
" clip-path="url(#pc1b70a07cf)" style="fill: #7a02a8"/>
    <path d="M 1580.8 1090.24 
L 1895.52 1090.24 
L 1895.52 1244.96 
L 1580.8 1244.96 
L 1580.8 1090.24 
" clip-path="url(#pc1b70a07cf)" style="fill: #f79143"/>
    <path d="M 1895.52 1090.24 
L 2210.24 1090.24 
L 2210.24 1244.96 
L 1895.52 1244.96 
L 1895.52 1090.24 
" clip-path="url(#pc1b70a07cf)" style="fill: #c5407e"/>
    <path d="M 2210.24 1090.24 
L 2524.96 1090.24 
L 2524.96 1244.96 
L 2210.24 1244.96 
L 2210.24 1090.24 
" clip-path="url(#pc1b70a07cf)" style="fill: #f0f921"/>
    <path d="M 2524.96 1090.24 
L 2839.68 1090.24 
L 2839.68 1244.96 
L 2524.96 1244.96 
L 2524.96 1090.24 
" clip-path="url(#pc1b70a07cf)" style="fill: #8104a7"/>
    <path d="M 2839.68 1090.24 
L 3154.4 1090.24 
L 3154.4 1244.96 
L 2839.68 1244.96 
L 2839.68 1090.24 
" clip-path="url(#pc1b70a07cf)" style="fill: #e97257"/>
    <path d="M 3154.4 1090.24 
L 3469.12 1090.24 
L 3469.12 1244.96 
L 3154.4 1244.96 
L 3154.4 1090.24 
" clip-path="url(#pc1b70a07cf)" style="fill: #b02991"/>
    <path d="M 3469.12 1090.24 
L 3783.84 1090.24 
L 3783.84 1244.96 
L 3469.12 1244.96 
L 3469.12 1090.24 
" clip-path="url(#pc1b70a07cf)" style="fill: #b02991"/>
    <path d="M 3783.84 1090.24 
L 4098.56 1090.24 
L 4098.56 1244.96 
L 3783.84 1244.96 
L 3783.84 1090.24 
" clip-path="url(#pc1b70a07cf)" style="fill: #c9447a"/>
    <path d="M 4098.56 1090.24 
L 4413.28 1090.24 
L 4413.28 1244.96 
L 4098.56 1244.96 
L 4098.56 1090.24 
" clip-path="url(#pc1b70a07cf)" style="fill: #cd4a76"/>
    <path d="M 4413.28 1090.24 
L 4728 1090.24 
L 4728 1244.96 
L 4413.28 1244.96 
L 4413.28 1090.24 
" clip-path="url(#pc1b70a07cf)" style="fill: #cb4679"/>
    <path d="M 4728 1090.24 
L 5042.72 1090.24 
L 5042.72 1244.96 
L 4728 1244.96 
L 4728 1090.24 
" clip-path="url(#pc1b70a07cf)" style="fill: #7100a8"/>
    <path d="M 5042.72 1090.24 
L 5357.44 1090.24 
L 5357.44 1244.96 
L 5042.72 1244.96 
L 5042.72 1090.24 
" clip-path="url(#pc1b70a07cf)" style="fill: #fba139"/>
    <path d="M 5357.44 1090.24 
L 5672.16 1090.24 
L 5672.16 1244.96 
L 5357.44 1244.96 
L 5357.44 1090.24 
" clip-path="url(#pc1b70a07cf)" style="fill: #feba2c"/>
    <path d="M 7.2 1244.96 
L 321.92 1244.96 
L 321.92 1399.68 
L 7.2 1399.68 
L 7.2 1244.96 
" clip-path="url(#pc1b70a07cf)" style="fill: #e3685f"/>
    <path d="M 321.92 1244.96 
L 636.64 1244.96 
L 636.64 1399.68 
L 321.92 1399.68 
L 321.92 1244.96 
" clip-path="url(#pc1b70a07cf)" style="fill: #9e199d"/>
    <path d="M 636.64 1244.96 
L 951.36 1244.96 
L 951.36 1399.68 
L 636.64 1399.68 
L 636.64 1244.96 
" clip-path="url(#pc1b70a07cf)" style="fill: #fdb52e"/>
    <path d="M 951.36 1244.96 
L 1266.08 1244.96 
L 1266.08 1399.68 
L 951.36 1399.68 
L 951.36 1244.96 
" clip-path="url(#pc1b70a07cf)" style="fill: #feba2c"/>
    <path d="M 1266.08 1244.96 
L 1580.8 1244.96 
L 1580.8 1399.68 
L 1266.08 1399.68 
L 1266.08 1244.96 
" clip-path="url(#pc1b70a07cf)" style="fill: #fcd025"/>
    <path d="M 1580.8 1244.96 
L 1895.52 1244.96 
L 1895.52 1399.68 
L 1580.8 1399.68 
L 1580.8 1244.96 
" clip-path="url(#pc1b70a07cf)" style="fill: #0d0887"/>
    <path d="M 1895.52 1244.96 
L 2210.24 1244.96 
L 2210.24 1399.68 
L 1895.52 1399.68 
L 1895.52 1244.96 
" clip-path="url(#pc1b70a07cf)" style="fill: #e3685f"/>
    <path d="M 2210.24 1244.96 
L 2524.96 1244.96 
L 2524.96 1399.68 
L 2210.24 1399.68 
L 2210.24 1244.96 
" clip-path="url(#pc1b70a07cf)" style="fill: #8104a7"/>
    <path d="M 2524.96 1244.96 
L 2839.68 1244.96 
L 2839.68 1399.68 
L 2524.96 1399.68 
L 2524.96 1244.96 
" clip-path="url(#pc1b70a07cf)" style="fill: #f0f921"/>
    <path d="M 2839.68 1244.96 
L 3154.4 1244.96 
L 3154.4 1399.68 
L 2839.68 1399.68 
L 2839.68 1244.96 
" clip-path="url(#pc1b70a07cf)" style="fill: #5601a4"/>
    <path d="M 3154.4 1244.96 
L 3469.12 1244.96 
L 3469.12 1399.68 
L 3154.4 1399.68 
L 3154.4 1244.96 
" clip-path="url(#pc1b70a07cf)" style="fill: #e4695e"/>
    <path d="M 3469.12 1244.96 
L 3783.84 1244.96 
L 3783.84 1399.68 
L 3469.12 1399.68 
L 3469.12 1244.96 
" clip-path="url(#pc1b70a07cf)" style="fill: #e4695e"/>
    <path d="M 3783.84 1244.96 
L 4098.56 1244.96 
L 4098.56 1399.68 
L 3783.84 1399.68 
L 3783.84 1244.96 
" clip-path="url(#pc1b70a07cf)" style="fill: #8d0ba5"/>
    <path d="M 4098.56 1244.96 
L 4413.28 1244.96 
L 4413.28 1399.68 
L 4098.56 1399.68 
L 4098.56 1244.96 
" clip-path="url(#pc1b70a07cf)" style="fill: #9814a0"/>
    <path d="M 4413.28 1244.96 
L 4728 1244.96 
L 4728 1399.68 
L 4413.28 1399.68 
L 4413.28 1244.96 
" clip-path="url(#pc1b70a07cf)" style="fill: #e56a5d"/>
    <path d="M 4728 1244.96 
L 5042.72 1244.96 
L 5042.72 1399.68 
L 4728 1399.68 
L 4728 1244.96 
" clip-path="url(#pc1b70a07cf)" style="fill: #feba2c"/>
    <path d="M 5042.72 1244.96 
L 5357.44 1244.96 
L 5357.44 1399.68 
L 5042.72 1399.68 
L 5042.72 1244.96 
" clip-path="url(#pc1b70a07cf)" style="fill: #dc5d67"/>
    <path d="M 5357.44 1244.96 
L 5672.16 1244.96 
L 5672.16 1399.68 
L 5357.44 1399.68 
L 5357.44 1244.96 
" clip-path="url(#pc1b70a07cf)" style="fill: #c13b82"/>
    <path d="M 7.2 1399.68 
L 321.92 1399.68 
L 321.92 1554.4 
L 7.2 1554.4 
L 7.2 1399.68 
" clip-path="url(#pc1b70a07cf)" style="fill: #b12a90"/>
    <path d="M 321.92 1399.68 
L 636.64 1399.68 
L 636.64 1554.4 
L 321.92 1554.4 
L 321.92 1399.68 
" clip-path="url(#pc1b70a07cf)" style="fill: #ed7953"/>
    <path d="M 636.64 1399.68 
L 951.36 1399.68 
L 951.36 1554.4 
L 636.64 1554.4 
L 636.64 1399.68 
" clip-path="url(#pc1b70a07cf)" style="fill: #4e02a2"/>
    <path d="M 951.36 1399.68 
L 1266.08 1399.68 
L 1266.08 1554.4 
L 951.36 1554.4 
L 951.36 1399.68 
" clip-path="url(#pc1b70a07cf)" style="fill: #bd3786"/>
    <path d="M 1266.08 1399.68 
L 1580.8 1399.68 
L 1580.8 1554.4 
L 1266.08 1554.4 
L 1266.08 1399.68 
" clip-path="url(#pc1b70a07cf)" style="fill: #6f00a8"/>
    <path d="M 1580.8 1399.68 
L 1895.52 1399.68 
L 1895.52 1554.4 
L 1580.8 1554.4 
L 1580.8 1399.68 
" clip-path="url(#pc1b70a07cf)" style="fill: #feba2c"/>
    <path d="M 1895.52 1399.68 
L 2210.24 1399.68 
L 2210.24 1554.4 
L 1895.52 1554.4 
L 1895.52 1399.68 
" clip-path="url(#pc1b70a07cf)" style="fill: #b12a90"/>
    <path d="M 2210.24 1399.68 
L 2524.96 1399.68 
L 2524.96 1554.4 
L 2210.24 1554.4 
L 2210.24 1399.68 
" clip-path="url(#pc1b70a07cf)" style="fill: #e97257"/>
    <path d="M 2524.96 1399.68 
L 2839.68 1399.68 
L 2839.68 1554.4 
L 2524.96 1554.4 
L 2524.96 1399.68 
" clip-path="url(#pc1b70a07cf)" style="fill: #5601a4"/>
    <path d="M 2839.68 1399.68 
L 3154.4 1399.68 
L 3154.4 1554.4 
L 2839.68 1554.4 
L 2839.68 1399.68 
" clip-path="url(#pc1b70a07cf)" style="fill: #f0f921"/>
    <path d="M 3154.4 1399.68 
L 3469.12 1399.68 
L 3469.12 1554.4 
L 3154.4 1554.4 
L 3154.4 1399.68 
" clip-path="url(#pc1b70a07cf)" style="fill: #9c179e"/>
    <path d="M 3469.12 1399.68 
L 3783.84 1399.68 
L 3783.84 1554.4 
L 3469.12 1554.4 
L 3469.12 1399.68 
" clip-path="url(#pc1b70a07cf)" style="fill: #9c179e"/>
    <path d="M 3783.84 1399.68 
L 4098.56 1399.68 
L 4098.56 1554.4 
L 3783.84 1554.4 
L 3783.84 1399.68 
" clip-path="url(#pc1b70a07cf)" style="fill: #c43e7f"/>
    <path d="M 4098.56 1399.68 
L 4413.28 1399.68 
L 4413.28 1554.4 
L 4098.56 1554.4 
L 4098.56 1399.68 
" clip-path="url(#pc1b70a07cf)" style="fill: #ef7c51"/>
    <path d="M 4413.28 1399.68 
L 4728 1399.68 
L 4728 1554.4 
L 4413.28 1554.4 
L 4413.28 1399.68 
" clip-path="url(#pc1b70a07cf)" style="fill: #c8437b"/>
    <path d="M 4728 1399.68 
L 5042.72 1399.68 
L 5042.72 1554.4 
L 4728 1554.4 
L 4728 1399.68 
" clip-path="url(#pc1b70a07cf)" style="fill: #920fa3"/>
    <path d="M 5042.72 1399.68 
L 5357.44 1399.68 
L 5357.44 1554.4 
L 5042.72 1554.4 
L 5042.72 1399.68 
" clip-path="url(#pc1b70a07cf)" style="fill: #c33d80"/>
    <path d="M 5357.44 1399.68 
L 5672.16 1399.68 
L 5672.16 1554.4 
L 5357.44 1554.4 
L 5357.44 1399.68 
" clip-path="url(#pc1b70a07cf)" style="fill: #dd5e66"/>
    <path d="M 7.2 1554.4 
L 321.92 1554.4 
L 321.92 1709.12 
L 7.2 1709.12 
L 7.2 1554.4 
" clip-path="url(#pc1b70a07cf)" style="fill: #f89441"/>
    <path d="M 321.92 1554.4 
L 636.64 1554.4 
L 636.64 1709.12 
L 321.92 1709.12 
L 321.92 1554.4 
" clip-path="url(#pc1b70a07cf)" style="fill: #a62098"/>
    <path d="M 636.64 1554.4 
L 951.36 1554.4 
L 951.36 1709.12 
L 636.64 1709.12 
L 636.64 1554.4 
" clip-path="url(#pc1b70a07cf)" style="fill: #f1814d"/>
    <path d="M 951.36 1554.4 
L 1266.08 1554.4 
L 1266.08 1709.12 
L 951.36 1709.12 
L 951.36 1554.4 
" clip-path="url(#pc1b70a07cf)" style="fill: #ed7953"/>
    <path d="M 1266.08 1554.4 
L 1580.8 1554.4 
L 1580.8 1709.12 
L 1266.08 1709.12 
L 1266.08 1554.4 
" clip-path="url(#pc1b70a07cf)" style="fill: #f79044"/>
    <path d="M 1580.8 1554.4 
L 1895.52 1554.4 
L 1895.52 1709.12 
L 1580.8 1709.12 
L 1580.8 1554.4 
" clip-path="url(#pc1b70a07cf)" style="fill: #ac2694"/>
    <path d="M 1895.52 1554.4 
L 2210.24 1554.4 
L 2210.24 1709.12 
L 1895.52 1709.12 
L 1895.52 1554.4 
" clip-path="url(#pc1b70a07cf)" style="fill: #f89441"/>
    <path d="M 2210.24 1554.4 
L 2524.96 1554.4 
L 2524.96 1709.12 
L 2210.24 1709.12 
L 2210.24 1554.4 
" clip-path="url(#pc1b70a07cf)" style="fill: #b02991"/>
    <path d="M 2524.96 1554.4 
L 2839.68 1554.4 
L 2839.68 1709.12 
L 2524.96 1709.12 
L 2524.96 1554.4 
" clip-path="url(#pc1b70a07cf)" style="fill: #e4695e"/>
    <path d="M 2839.68 1554.4 
L 3154.4 1554.4 
L 3154.4 1709.12 
L 2839.68 1709.12 
L 2839.68 1554.4 
" clip-path="url(#pc1b70a07cf)" style="fill: #9c179e"/>
    <path d="M 3154.4 1554.4 
L 3469.12 1554.4 
L 3469.12 1709.12 
L 3154.4 1709.12 
L 3154.4 1554.4 
" clip-path="url(#pc1b70a07cf)" style="fill: #f0f921"/>
    <path d="M 3469.12 1554.4 
L 3783.84 1554.4 
L 3783.84 1709.12 
L 3469.12 1709.12 
L 3469.12 1554.4 
" clip-path="url(#pc1b70a07cf)" style="fill: #f0f921"/>
    <path d="M 3783.84 1554.4 
L 4098.56 1554.4 
L 4098.56 1709.12 
L 3783.84 1709.12 
L 3783.84 1554.4 
" clip-path="url(#pc1b70a07cf)" style="fill: #c9447a"/>
    <path d="M 4098.56 1554.4 
L 4413.28 1554.4 
L 4413.28 1709.12 
L 4098.56 1709.12 
L 4098.56 1554.4 
" clip-path="url(#pc1b70a07cf)" style="fill: #8104a7"/>
    <path d="M 4413.28 1554.4 
L 4728 1554.4 
L 4728 1709.12 
L 4413.28 1709.12 
L 4413.28 1554.4 
" clip-path="url(#pc1b70a07cf)" style="fill: #ef7c51"/>
    <path d="M 4728 1554.4 
L 5042.72 1554.4 
L 5042.72 1709.12 
L 4728 1709.12 
L 4728 1554.4 
" clip-path="url(#pc1b70a07cf)" style="fill: #f89441"/>
    <path d="M 5042.72 1554.4 
L 5357.44 1554.4 
L 5357.44 1709.12 
L 5042.72 1709.12 
L 5042.72 1554.4 
" clip-path="url(#pc1b70a07cf)" style="fill: #9511a1"/>
    <path d="M 5357.44 1554.4 
L 5672.16 1554.4 
L 5672.16 1709.12 
L 5357.44 1709.12 
L 5357.44 1554.4 
" clip-path="url(#pc1b70a07cf)" style="fill: #7d03a8"/>
    <path d="M 7.2 1709.12 
L 321.92 1709.12 
L 321.92 1863.84 
L 7.2 1863.84 
L 7.2 1709.12 
" clip-path="url(#pc1b70a07cf)" style="fill: #f89441"/>
    <path d="M 321.92 1709.12 
L 636.64 1709.12 
L 636.64 1863.84 
L 321.92 1863.84 
L 321.92 1709.12 
" clip-path="url(#pc1b70a07cf)" style="fill: #a62098"/>
    <path d="M 636.64 1709.12 
L 951.36 1709.12 
L 951.36 1863.84 
L 636.64 1863.84 
L 636.64 1709.12 
" clip-path="url(#pc1b70a07cf)" style="fill: #f1814d"/>
    <path d="M 951.36 1709.12 
L 1266.08 1709.12 
L 1266.08 1863.84 
L 951.36 1863.84 
L 951.36 1709.12 
" clip-path="url(#pc1b70a07cf)" style="fill: #ed7953"/>
    <path d="M 1266.08 1709.12 
L 1580.8 1709.12 
L 1580.8 1863.84 
L 1266.08 1863.84 
L 1266.08 1709.12 
" clip-path="url(#pc1b70a07cf)" style="fill: #f79044"/>
    <path d="M 1580.8 1709.12 
L 1895.52 1709.12 
L 1895.52 1863.84 
L 1580.8 1863.84 
L 1580.8 1709.12 
" clip-path="url(#pc1b70a07cf)" style="fill: #ac2694"/>
    <path d="M 1895.52 1709.12 
L 2210.24 1709.12 
L 2210.24 1863.84 
L 1895.52 1863.84 
L 1895.52 1709.12 
" clip-path="url(#pc1b70a07cf)" style="fill: #f89441"/>
    <path d="M 2210.24 1709.12 
L 2524.96 1709.12 
L 2524.96 1863.84 
L 2210.24 1863.84 
L 2210.24 1709.12 
" clip-path="url(#pc1b70a07cf)" style="fill: #b02991"/>
    <path d="M 2524.96 1709.12 
L 2839.68 1709.12 
L 2839.68 1863.84 
L 2524.96 1863.84 
L 2524.96 1709.12 
" clip-path="url(#pc1b70a07cf)" style="fill: #e4695e"/>
    <path d="M 2839.68 1709.12 
L 3154.4 1709.12 
L 3154.4 1863.84 
L 2839.68 1863.84 
L 2839.68 1709.12 
" clip-path="url(#pc1b70a07cf)" style="fill: #9c179e"/>
    <path d="M 3154.4 1709.12 
L 3469.12 1709.12 
L 3469.12 1863.84 
L 3154.4 1863.84 
L 3154.4 1709.12 
" clip-path="url(#pc1b70a07cf)" style="fill: #f0f921"/>
    <path d="M 3469.12 1709.12 
L 3783.84 1709.12 
L 3783.84 1863.84 
L 3469.12 1863.84 
L 3469.12 1709.12 
" clip-path="url(#pc1b70a07cf)" style="fill: #f0f921"/>
    <path d="M 3783.84 1709.12 
L 4098.56 1709.12 
L 4098.56 1863.84 
L 3783.84 1863.84 
L 3783.84 1709.12 
" clip-path="url(#pc1b70a07cf)" style="fill: #c9447a"/>
    <path d="M 4098.56 1709.12 
L 4413.28 1709.12 
L 4413.28 1863.84 
L 4098.56 1863.84 
L 4098.56 1709.12 
" clip-path="url(#pc1b70a07cf)" style="fill: #8104a7"/>
    <path d="M 4413.28 1709.12 
L 4728 1709.12 
L 4728 1863.84 
L 4413.28 1863.84 
L 4413.28 1709.12 
" clip-path="url(#pc1b70a07cf)" style="fill: #ef7c51"/>
    <path d="M 4728 1709.12 
L 5042.72 1709.12 
L 5042.72 1863.84 
L 4728 1863.84 
L 4728 1709.12 
" clip-path="url(#pc1b70a07cf)" style="fill: #f89441"/>
    <path d="M 5042.72 1709.12 
L 5357.44 1709.12 
L 5357.44 1863.84 
L 5042.72 1863.84 
L 5042.72 1709.12 
" clip-path="url(#pc1b70a07cf)" style="fill: #9511a1"/>
    <path d="M 5357.44 1709.12 
L 5672.16 1709.12 
L 5672.16 1863.84 
L 5357.44 1863.84 
L 5357.44 1709.12 
" clip-path="url(#pc1b70a07cf)" style="fill: #7d03a8"/>
    <path d="M 7.2 1863.84 
L 321.92 1863.84 
L 321.92 2018.56 
L 7.2 2018.56 
L 7.2 1863.84 
" clip-path="url(#pc1b70a07cf)" style="fill: #5c01a6"/>
    <path d="M 321.92 1863.84 
L 636.64 1863.84 
L 636.64 2018.56 
L 321.92 2018.56 
L 321.92 1863.84 
" clip-path="url(#pc1b70a07cf)" style="fill: #e26561"/>
    <path d="M 636.64 1863.84 
L 951.36 1863.84 
L 951.36 2018.56 
L 636.64 2018.56 
L 636.64 1863.84 
" clip-path="url(#pc1b70a07cf)" style="fill: #c23c81"/>
    <path d="M 951.36 1863.84 
L 1266.08 1863.84 
L 1266.08 2018.56 
L 951.36 2018.56 
L 951.36 1863.84 
" clip-path="url(#pc1b70a07cf)" style="fill: #6001a6"/>
    <path d="M 1266.08 1863.84 
L 1580.8 1863.84 
L 1580.8 2018.56 
L 1266.08 2018.56 
L 1266.08 1863.84 
" clip-path="url(#pc1b70a07cf)" style="fill: #8004a8"/>
    <path d="M 1580.8 1863.84 
L 1895.52 1863.84 
L 1895.52 2018.56 
L 1580.8 2018.56 
L 1580.8 1863.84 
" clip-path="url(#pc1b70a07cf)" style="fill: #f3874a"/>
    <path d="M 1895.52 1863.84 
L 2210.24 1863.84 
L 2210.24 2018.56 
L 1895.52 2018.56 
L 1895.52 1863.84 
" clip-path="url(#pc1b70a07cf)" style="fill: #5c01a6"/>
    <path d="M 2210.24 1863.84 
L 2524.96 1863.84 
L 2524.96 2018.56 
L 2210.24 2018.56 
L 2210.24 1863.84 
" clip-path="url(#pc1b70a07cf)" style="fill: #c9447a"/>
    <path d="M 2524.96 1863.84 
L 2839.68 1863.84 
L 2839.68 2018.56 
L 2524.96 2018.56 
L 2524.96 1863.84 
" clip-path="url(#pc1b70a07cf)" style="fill: #8d0ba5"/>
    <path d="M 2839.68 1863.84 
L 3154.4 1863.84 
L 3154.4 2018.56 
L 2839.68 2018.56 
L 2839.68 1863.84 
" clip-path="url(#pc1b70a07cf)" style="fill: #c43e7f"/>
    <path d="M 3154.4 1863.84 
L 3469.12 1863.84 
L 3469.12 2018.56 
L 3154.4 2018.56 
L 3154.4 1863.84 
" clip-path="url(#pc1b70a07cf)" style="fill: #c9447a"/>
    <path d="M 3469.12 1863.84 
L 3783.84 1863.84 
L 3783.84 2018.56 
L 3469.12 2018.56 
L 3469.12 1863.84 
" clip-path="url(#pc1b70a07cf)" style="fill: #c9447a"/>
    <path d="M 3783.84 1863.84 
L 4098.56 1863.84 
L 4098.56 2018.56 
L 3783.84 2018.56 
L 3783.84 1863.84 
" clip-path="url(#pc1b70a07cf)" style="fill: #f0f921"/>
    <path d="M 4098.56 1863.84 
L 4413.28 1863.84 
L 4413.28 2018.56 
L 4098.56 2018.56 
L 4098.56 1863.84 
" clip-path="url(#pc1b70a07cf)" style="fill: #feb82c"/>
    <path d="M 4413.28 1863.84 
L 4728 1863.84 
L 4728 2018.56 
L 4413.28 2018.56 
L 4413.28 1863.84 
" clip-path="url(#pc1b70a07cf)" style="fill: #350498"/>
    <path d="M 4728 1863.84 
L 5042.72 1863.84 
L 5042.72 2018.56 
L 4728 2018.56 
L 4728 1863.84 
" clip-path="url(#pc1b70a07cf)" style="fill: #8405a7"/>
    <path d="M 5042.72 1863.84 
L 5357.44 1863.84 
L 5357.44 2018.56 
L 5042.72 2018.56 
L 5042.72 1863.84 
" clip-path="url(#pc1b70a07cf)" style="fill: #a82296"/>
    <path d="M 5357.44 1863.84 
L 5672.16 1863.84 
L 5672.16 2018.56 
L 5357.44 2018.56 
L 5357.44 1863.84 
" clip-path="url(#pc1b70a07cf)" style="fill: #c13b82"/>
    <path d="M 7.2 2018.56 
L 321.92 2018.56 
L 321.92 2173.28 
L 7.2 2173.28 
L 7.2 2018.56 
" clip-path="url(#pc1b70a07cf)" style="fill: #1b068d"/>
    <path d="M 321.92 2018.56 
L 636.64 2018.56 
L 636.64 2173.28 
L 321.92 2173.28 
L 321.92 2018.56 
" clip-path="url(#pc1b70a07cf)" style="fill: #ed7a52"/>
    <path d="M 636.64 2018.56 
L 951.36 2018.56 
L 951.36 2173.28 
L 636.64 2173.28 
L 636.64 2018.56 
" clip-path="url(#pc1b70a07cf)" style="fill: #a72197"/>
    <path d="M 951.36 2018.56 
L 1266.08 2018.56 
L 1266.08 2173.28 
L 951.36 2173.28 
L 951.36 2018.56 
" clip-path="url(#pc1b70a07cf)" style="fill: #9814a0"/>
    <path d="M 1266.08 2018.56 
L 1580.8 2018.56 
L 1580.8 2173.28 
L 1266.08 2173.28 
L 1266.08 2018.56 
" clip-path="url(#pc1b70a07cf)" style="fill: #7a02a8"/>
    <path d="M 1580.8 2018.56 
L 1895.52 2018.56 
L 1895.52 2173.28 
L 1580.8 2173.28 
L 1580.8 2018.56 
" clip-path="url(#pc1b70a07cf)" style="fill: #ef7c51"/>
    <path d="M 1895.52 2018.56 
L 2210.24 2018.56 
L 2210.24 2173.28 
L 1895.52 2173.28 
L 1895.52 2018.56 
" clip-path="url(#pc1b70a07cf)" style="fill: #1b068d"/>
    <path d="M 2210.24 2018.56 
L 2524.96 2018.56 
L 2524.96 2173.28 
L 2210.24 2173.28 
L 2210.24 2018.56 
" clip-path="url(#pc1b70a07cf)" style="fill: #cd4a76"/>
    <path d="M 2524.96 2018.56 
L 2839.68 2018.56 
L 2839.68 2173.28 
L 2524.96 2173.28 
L 2524.96 2018.56 
" clip-path="url(#pc1b70a07cf)" style="fill: #9814a0"/>
    <path d="M 2839.68 2018.56 
L 3154.4 2018.56 
L 3154.4 2173.28 
L 2839.68 2173.28 
L 2839.68 2018.56 
" clip-path="url(#pc1b70a07cf)" style="fill: #ef7c51"/>
    <path d="M 3154.4 2018.56 
L 3469.12 2018.56 
L 3469.12 2173.28 
L 3154.4 2173.28 
L 3154.4 2018.56 
" clip-path="url(#pc1b70a07cf)" style="fill: #8104a7"/>
    <path d="M 3469.12 2018.56 
L 3783.84 2018.56 
L 3783.84 2173.28 
L 3469.12 2173.28 
L 3469.12 2018.56 
" clip-path="url(#pc1b70a07cf)" style="fill: #8104a7"/>
    <path d="M 3783.84 2018.56 
L 4098.56 2018.56 
L 4098.56 2173.28 
L 3783.84 2173.28 
L 3783.84 2018.56 
" clip-path="url(#pc1b70a07cf)" style="fill: #feb82c"/>
    <path d="M 4098.56 2018.56 
L 4413.28 2018.56 
L 4413.28 2173.28 
L 4098.56 2173.28 
L 4098.56 2018.56 
" clip-path="url(#pc1b70a07cf)" style="fill: #f0f921"/>
    <path d="M 4413.28 2018.56 
L 4728 2018.56 
L 4728 2173.28 
L 4413.28 2173.28 
L 4413.28 2018.56 
" clip-path="url(#pc1b70a07cf)" style="fill: #2a0593"/>
    <path d="M 4728 2018.56 
L 5042.72 2018.56 
L 5042.72 2173.28 
L 4728 2173.28 
L 4728 2018.56 
" clip-path="url(#pc1b70a07cf)" style="fill: #8808a6"/>
    <path d="M 5042.72 2018.56 
L 5357.44 2018.56 
L 5357.44 2173.28 
L 5042.72 2173.28 
L 5042.72 2018.56 
" clip-path="url(#pc1b70a07cf)" style="fill: #c8437b"/>
    <path d="M 5357.44 2018.56 
L 5672.16 2018.56 
L 5672.16 2173.28 
L 5357.44 2173.28 
L 5357.44 2018.56 
" clip-path="url(#pc1b70a07cf)" style="fill: #e06363"/>
    <path d="M 7.2 2173.28 
L 321.92 2173.28 
L 321.92 2328 
L 7.2 2328 
L 7.2 2173.28 
" clip-path="url(#pc1b70a07cf)" style="fill: #f5eb27"/>
    <path d="M 321.92 2173.28 
L 636.64 2173.28 
L 636.64 2328 
L 321.92 2328 
L 321.92 2173.28 
" clip-path="url(#pc1b70a07cf)" style="fill: #9410a2"/>
    <path d="M 636.64 2173.28 
L 951.36 2173.28 
L 951.36 2328 
L 636.64 2328 
L 636.64 2173.28 
" clip-path="url(#pc1b70a07cf)" style="fill: #e06363"/>
    <path d="M 951.36 2173.28 
L 1266.08 2173.28 
L 1266.08 2328 
L 951.36 2328 
L 951.36 2173.28 
" clip-path="url(#pc1b70a07cf)" style="fill: #f99a3e"/>
    <path d="M 1266.08 2173.28 
L 1580.8 2173.28 
L 1580.8 2328 
L 1266.08 2328 
L 1266.08 2173.28 
" clip-path="url(#pc1b70a07cf)" style="fill: #f99a3e"/>
    <path d="M 1580.8 2173.28 
L 1895.52 2173.28 
L 1895.52 2328 
L 1580.8 2328 
L 1580.8 2173.28 
" clip-path="url(#pc1b70a07cf)" style="fill: #ab2494"/>
    <path d="M 1895.52 2173.28 
L 2210.24 2173.28 
L 2210.24 2328 
L 1895.52 2328 
L 1895.52 2173.28 
" clip-path="url(#pc1b70a07cf)" style="fill: #f5eb27"/>
    <path d="M 2210.24 2173.28 
L 2524.96 2173.28 
L 2524.96 2328 
L 2210.24 2328 
L 2210.24 2173.28 
" clip-path="url(#pc1b70a07cf)" style="fill: #cb4679"/>
    <path d="M 2524.96 2173.28 
L 2839.68 2173.28 
L 2839.68 2328 
L 2524.96 2328 
L 2524.96 2173.28 
" clip-path="url(#pc1b70a07cf)" style="fill: #e56a5d"/>
    <path d="M 2839.68 2173.28 
L 3154.4 2173.28 
L 3154.4 2328 
L 2839.68 2328 
L 2839.68 2173.28 
" clip-path="url(#pc1b70a07cf)" style="fill: #c8437b"/>
    <path d="M 3154.4 2173.28 
L 3469.12 2173.28 
L 3469.12 2328 
L 3154.4 2328 
L 3154.4 2173.28 
" clip-path="url(#pc1b70a07cf)" style="fill: #ef7c51"/>
    <path d="M 3469.12 2173.28 
L 3783.84 2173.28 
L 3783.84 2328 
L 3469.12 2328 
L 3469.12 2173.28 
" clip-path="url(#pc1b70a07cf)" style="fill: #ef7c51"/>
    <path d="M 3783.84 2173.28 
L 4098.56 2173.28 
L 4098.56 2328 
L 3783.84 2328 
L 3783.84 2173.28 
" clip-path="url(#pc1b70a07cf)" style="fill: #350498"/>
    <path d="M 4098.56 2173.28 
L 4413.28 2173.28 
L 4413.28 2328 
L 4098.56 2328 
L 4098.56 2173.28 
" clip-path="url(#pc1b70a07cf)" style="fill: #2a0593"/>
    <path d="M 4413.28 2173.28 
L 4728 2173.28 
L 4728 2328 
L 4413.28 2328 
L 4413.28 2173.28 
" clip-path="url(#pc1b70a07cf)" style="fill: #f0f921"/>
    <path d="M 4728 2173.28 
L 5042.72 2173.28 
L 5042.72 2328 
L 4728 2328 
L 4728 2173.28 
" clip-path="url(#pc1b70a07cf)" style="fill: #f99a3e"/>
    <path d="M 5042.72 2173.28 
L 5357.44 2173.28 
L 5357.44 2328 
L 5042.72 2328 
L 5042.72 2173.28 
" clip-path="url(#pc1b70a07cf)" style="fill: #d24f71"/>
    <path d="M 5357.44 2173.28 
L 5672.16 2173.28 
L 5672.16 2328 
L 5357.44 2328 
L 5357.44 2173.28 
" clip-path="url(#pc1b70a07cf)" style="fill: #ba3388"/>
    <path d="M 7.2 2328 
L 321.92 2328 
L 321.92 2482.72 
L 7.2 2482.72 
L 7.2 2328 
" clip-path="url(#pc1b70a07cf)" style="fill: #f79143"/>
    <path d="M 321.92 2328 
L 636.64 2328 
L 636.64 2482.72 
L 321.92 2482.72 
L 321.92 2328 
" clip-path="url(#pc1b70a07cf)" style="fill: #6001a6"/>
    <path d="M 636.64 2328 
L 951.36 2328 
L 951.36 2482.72 
L 636.64 2482.72 
L 636.64 2328 
" clip-path="url(#pc1b70a07cf)" style="fill: #fcd225"/>
    <path d="M 951.36 2328 
L 1266.08 2328 
L 1266.08 2482.72 
L 951.36 2482.72 
L 951.36 2328 
" clip-path="url(#pc1b70a07cf)" style="fill: #f8e125"/>
    <path d="M 1266.08 2328 
L 1580.8 2328 
L 1580.8 2482.72 
L 1266.08 2482.72 
L 1266.08 2328 
" clip-path="url(#pc1b70a07cf)" style="fill: #f2f227"/>
    <path d="M 1580.8 2328 
L 1895.52 2328 
L 1895.52 2482.72 
L 1580.8 2482.72 
L 1580.8 2328 
" clip-path="url(#pc1b70a07cf)" style="fill: #5601a4"/>
    <path d="M 1895.52 2328 
L 2210.24 2328 
L 2210.24 2482.72 
L 1895.52 2482.72 
L 1895.52 2328 
" clip-path="url(#pc1b70a07cf)" style="fill: #f79143"/>
    <path d="M 2210.24 2328 
L 2524.96 2328 
L 2524.96 2482.72 
L 2210.24 2482.72 
L 2210.24 2328 
" clip-path="url(#pc1b70a07cf)" style="fill: #7100a8"/>
    <path d="M 2524.96 2328 
L 2839.68 2328 
L 2839.68 2482.72 
L 2524.96 2482.72 
L 2524.96 2328 
" clip-path="url(#pc1b70a07cf)" style="fill: #feba2c"/>
    <path d="M 2839.68 2328 
L 3154.4 2328 
L 3154.4 2482.72 
L 2839.68 2482.72 
L 2839.68 2328 
" clip-path="url(#pc1b70a07cf)" style="fill: #920fa3"/>
    <path d="M 3154.4 2328 
L 3469.12 2328 
L 3469.12 2482.72 
L 3154.4 2482.72 
L 3154.4 2328 
" clip-path="url(#pc1b70a07cf)" style="fill: #f89441"/>
    <path d="M 3469.12 2328 
L 3783.84 2328 
L 3783.84 2482.72 
L 3469.12 2482.72 
L 3469.12 2328 
" clip-path="url(#pc1b70a07cf)" style="fill: #f89441"/>
    <path d="M 3783.84 2328 
L 4098.56 2328 
L 4098.56 2482.72 
L 3783.84 2482.72 
L 3783.84 2328 
" clip-path="url(#pc1b70a07cf)" style="fill: #8405a7"/>
    <path d="M 4098.56 2328 
L 4413.28 2328 
L 4413.28 2482.72 
L 4098.56 2482.72 
L 4098.56 2328 
" clip-path="url(#pc1b70a07cf)" style="fill: #8808a6"/>
    <path d="M 4413.28 2328 
L 4728 2328 
L 4728 2482.72 
L 4413.28 2482.72 
L 4413.28 2328 
" clip-path="url(#pc1b70a07cf)" style="fill: #f99a3e"/>
    <path d="M 4728 2328 
L 5042.72 2328 
L 5042.72 2482.72 
L 4728 2482.72 
L 4728 2328 
" clip-path="url(#pc1b70a07cf)" style="fill: #f0f921"/>
    <path d="M 5042.72 2328 
L 5357.44 2328 
L 5357.44 2482.72 
L 5042.72 2482.72 
L 5042.72 2328 
" clip-path="url(#pc1b70a07cf)" style="fill: #c43e7f"/>
    <path d="M 5357.44 2328 
L 5672.16 2328 
L 5672.16 2482.72 
L 5357.44 2482.72 
L 5357.44 2328 
" clip-path="url(#pc1b70a07cf)" style="fill: #a01a9c"/>
    <path d="M 7.2 2482.72 
L 321.92 2482.72 
L 321.92 2637.44 
L 7.2 2637.44 
L 7.2 2482.72 
" clip-path="url(#pc1b70a07cf)" style="fill: #cc4977"/>
    <path d="M 321.92 2482.72 
L 636.64 2482.72 
L 636.64 2637.44 
L 321.92 2637.44 
L 321.92 2482.72 
" clip-path="url(#pc1b70a07cf)" style="fill: #f89540"/>
    <path d="M 636.64 2482.72 
L 951.36 2482.72 
L 951.36 2637.44 
L 636.64 2637.44 
L 636.64 2482.72 
" clip-path="url(#pc1b70a07cf)" style="fill: #cd4a76"/>
    <path d="M 951.36 2482.72 
L 1266.08 2482.72 
L 1266.08 2637.44 
L 951.36 2637.44 
L 951.36 2482.72 
" clip-path="url(#pc1b70a07cf)" style="fill: #c7427c"/>
    <path d="M 1266.08 2482.72 
L 1580.8 2482.72 
L 1580.8 2637.44 
L 1266.08 2637.44 
L 1266.08 2482.72 
" clip-path="url(#pc1b70a07cf)" style="fill: #ca457a"/>
    <path d="M 1580.8 2482.72 
L 1895.52 2482.72 
L 1895.52 2637.44 
L 1580.8 2637.44 
L 1580.8 2482.72 
" clip-path="url(#pc1b70a07cf)" style="fill: #b7318a"/>
    <path d="M 1895.52 2482.72 
L 2210.24 2482.72 
L 2210.24 2637.44 
L 1895.52 2637.44 
L 1895.52 2482.72 
" clip-path="url(#pc1b70a07cf)" style="fill: #cc4977"/>
    <path d="M 2210.24 2482.72 
L 2524.96 2482.72 
L 2524.96 2637.44 
L 2210.24 2637.44 
L 2210.24 2482.72 
" clip-path="url(#pc1b70a07cf)" style="fill: #fba139"/>
    <path d="M 2524.96 2482.72 
L 2839.68 2482.72 
L 2839.68 2637.44 
L 2524.96 2637.44 
L 2524.96 2482.72 
" clip-path="url(#pc1b70a07cf)" style="fill: #dc5d67"/>
    <path d="M 2839.68 2482.72 
L 3154.4 2482.72 
L 3154.4 2637.44 
L 2839.68 2637.44 
L 2839.68 2482.72 
" clip-path="url(#pc1b70a07cf)" style="fill: #c33d80"/>
    <path d="M 3154.4 2482.72 
L 3469.12 2482.72 
L 3469.12 2637.44 
L 3154.4 2637.44 
L 3154.4 2482.72 
" clip-path="url(#pc1b70a07cf)" style="fill: #9511a1"/>
    <path d="M 3469.12 2482.72 
L 3783.84 2482.72 
L 3783.84 2637.44 
L 3469.12 2637.44 
L 3469.12 2482.72 
" clip-path="url(#pc1b70a07cf)" style="fill: #9511a1"/>
    <path d="M 3783.84 2482.72 
L 4098.56 2482.72 
L 4098.56 2637.44 
L 3783.84 2637.44 
L 3783.84 2482.72 
" clip-path="url(#pc1b70a07cf)" style="fill: #a82296"/>
    <path d="M 4098.56 2482.72 
L 4413.28 2482.72 
L 4413.28 2637.44 
L 4098.56 2637.44 
L 4098.56 2482.72 
" clip-path="url(#pc1b70a07cf)" style="fill: #c8437b"/>
    <path d="M 4413.28 2482.72 
L 4728 2482.72 
L 4728 2637.44 
L 4413.28 2637.44 
L 4413.28 2482.72 
" clip-path="url(#pc1b70a07cf)" style="fill: #d24f71"/>
    <path d="M 4728 2482.72 
L 5042.72 2482.72 
L 5042.72 2637.44 
L 4728 2637.44 
L 4728 2482.72 
" clip-path="url(#pc1b70a07cf)" style="fill: #c43e7f"/>
    <path d="M 5042.72 2482.72 
L 5357.44 2482.72 
L 5357.44 2637.44 
L 5042.72 2637.44 
L 5042.72 2482.72 
" clip-path="url(#pc1b70a07cf)" style="fill: #f0f921"/>
    <path d="M 5357.44 2482.72 
L 5672.16 2482.72 
L 5672.16 2637.44 
L 5357.44 2637.44 
L 5357.44 2482.72 
" clip-path="url(#pc1b70a07cf)" style="fill: #fcd225"/>
    <path d="M 7.2 2637.44 
L 321.92 2637.44 
L 321.92 2792.16 
L 7.2 2792.16 
L 7.2 2637.44 
" clip-path="url(#pc1b70a07cf)" style="fill: #ae2892"/>
    <path d="M 321.92 2637.44 
L 636.64 2637.44 
L 636.64 2792.16 
L 321.92 2792.16 
L 321.92 2637.44 
" clip-path="url(#pc1b70a07cf)" style="fill: #feb82c"/>
    <path d="M 636.64 2637.44 
L 951.36 2637.44 
L 951.36 2792.16 
L 636.64 2792.16 
L 636.64 2637.44 
" clip-path="url(#pc1b70a07cf)" style="fill: #a62098"/>
    <path d="M 951.36 2637.44 
L 1266.08 2637.44 
L 1266.08 2792.16 
L 951.36 2792.16 
L 951.36 2637.44 
" clip-path="url(#pc1b70a07cf)" style="fill: #b22b8f"/>
    <path d="M 1266.08 2637.44 
L 1580.8 2637.44 
L 1580.8 2792.16 
L 1266.08 2792.16 
L 1266.08 2637.44 
" clip-path="url(#pc1b70a07cf)" style="fill: #a51f99"/>
    <path d="M 1580.8 2637.44 
L 1895.52 2637.44 
L 1895.52 2792.16 
L 1580.8 2792.16 
L 1580.8 2637.44 
" clip-path="url(#pc1b70a07cf)" style="fill: #d5536f"/>
    <path d="M 1895.52 2637.44 
L 2210.24 2637.44 
L 2210.24 2792.16 
L 1895.52 2792.16 
L 1895.52 2637.44 
" clip-path="url(#pc1b70a07cf)" style="fill: #ae2892"/>
    <path d="M 2210.24 2637.44 
L 2524.96 2637.44 
L 2524.96 2792.16 
L 2210.24 2792.16 
L 2210.24 2637.44 
" clip-path="url(#pc1b70a07cf)" style="fill: #feba2c"/>
    <path d="M 2524.96 2637.44 
L 2839.68 2637.44 
L 2839.68 2792.16 
L 2524.96 2792.16 
L 2524.96 2637.44 
" clip-path="url(#pc1b70a07cf)" style="fill: #c13b82"/>
    <path d="M 2839.68 2637.44 
L 3154.4 2637.44 
L 3154.4 2792.16 
L 2839.68 2792.16 
L 2839.68 2637.44 
" clip-path="url(#pc1b70a07cf)" style="fill: #dd5e66"/>
    <path d="M 3154.4 2637.44 
L 3469.12 2637.44 
L 3469.12 2792.16 
L 3154.4 2792.16 
L 3154.4 2637.44 
" clip-path="url(#pc1b70a07cf)" style="fill: #7d03a8"/>
    <path d="M 3469.12 2637.44 
L 3783.84 2637.44 
L 3783.84 2792.16 
L 3469.12 2792.16 
L 3469.12 2637.44 
" clip-path="url(#pc1b70a07cf)" style="fill: #7d03a8"/>
    <path d="M 3783.84 2637.44 
L 4098.56 2637.44 
L 4098.56 2792.16 
L 3783.84 2792.16 
L 3783.84 2637.44 
" clip-path="url(#pc1b70a07cf)" style="fill: #c13b82"/>
    <path d="M 4098.56 2637.44 
L 4413.28 2637.44 
L 4413.28 2792.16 
L 4098.56 2792.16 
L 4098.56 2637.44 
" clip-path="url(#pc1b70a07cf)" style="fill: #e06363"/>
    <path d="M 4413.28 2637.44 
L 4728 2637.44 
L 4728 2792.16 
L 4413.28 2792.16 
L 4413.28 2637.44 
" clip-path="url(#pc1b70a07cf)" style="fill: #ba3388"/>
    <path d="M 4728 2637.44 
L 5042.72 2637.44 
L 5042.72 2792.16 
L 4728 2792.16 
L 4728 2637.44 
" clip-path="url(#pc1b70a07cf)" style="fill: #a01a9c"/>
    <path d="M 5042.72 2637.44 
L 5357.44 2637.44 
L 5357.44 2792.16 
L 5042.72 2792.16 
L 5042.72 2637.44 
" clip-path="url(#pc1b70a07cf)" style="fill: #fcd225"/>
    <path d="M 5357.44 2637.44 
L 5672.16 2637.44 
L 5672.16 2792.16 
L 5357.44 2792.16 
L 5357.44 2637.44 
" clip-path="url(#pc1b70a07cf)" style="fill: #f0f921"/>
   </g>
   <g id="matplotlib.axis_1"/>
   <g id="matplotlib.axis_2"/>
  </g>
 </g>
 <defs>
  <clipPath id="pc1b70a07cf">
   <rect x="7.2" y="7.2" width="5664.96" height="2784.96"/>
  </clipPath>
 </defs>
</svg>
