<?xml version="1.0" encoding="utf-8" standalone="no"?>
<!DOCTYPE svg PUBLIC "-//W3C//DTD SVG 1.1//EN"
  "http://www.w3.org/Graphics/SVG/1.1/DTD/svg11.dtd">
<svg xmlns:xlink="http://www.w3.org/1999/xlink" width="5679.36pt" height="2799.36pt" viewBox="0 0 5679.36 2799.36" xmlns="http://www.w3.org/2000/svg" version="1.1">
 <metadata>
  <rdf:RDF xmlns:dc="http://purl.org/dc/elements/1.1/" xmlns:cc="http://creativecommons.org/ns#" xmlns:rdf="http://www.w3.org/1999/02/22-rdf-syntax-ns#">
   <cc:Work>
    <dc:type rdf:resource="http://purl.org/dc/dcmitype/StillImage"/>
    <dc:date>2025-02-24T17:19:44.187024</dc:date>
    <dc:format>image/svg+xml</dc:format>
    <dc:creator>
     <cc:Agent>
      <dc:title>Matplotlib v3.10.0, https://matplotlib.org/</dc:title>
     </cc:Agent>
    </dc:creator>
   </cc:Work>
  </rdf:RDF>
 </metadata>
 <defs>
  <style type="text/css">*{stroke-linejoin: round; stroke-linecap: butt}</style>
 </defs>
 <g id="figure_1">
  <g id="patch_1">
   <path d="M 0 2799.36 
L 5679.36 2799.36 
L 5679.36 0 
L 0 0 
z
" style="fill: #ffffff"/>
  </g>
  <g id="axes_1">
   <g id="patch_2">
    <path d="M 7.2 2792.16 
L 5672.16 2792.16 
L 5672.16 7.2 
L 7.2 7.2 
z
" style="fill: #ffffff"/>
   </g>
   <g id="QuadMesh_1">
    <path d="M 7.2 7.2 
L 573.696 7.2 
L 573.696 285.696 
L 7.2 285.696 
L 7.2 7.2 
" clip-path="url(#pe40959098f)" style="fill: #f0f921"/>
    <path d="M 573.696 7.2 
L 1140.192 7.2 
L 1140.192 285.696 
L 573.696 285.696 
L 573.696 7.2 
" clip-path="url(#pe40959098f)" style="fill: #5801a4"/>
    <path d="M 1140.192 7.2 
L 1706.688 7.2 
L 1706.688 285.696 
L 1140.192 285.696 
L 1140.192 7.2 
" clip-path="url(#pe40959098f)" style="fill: #f48849"/>
    <path d="M 1706.688 7.2 
L 2273.184 7.2 
L 2273.184 285.696 
L 1706.688 285.696 
L 1706.688 7.2 
" clip-path="url(#pe40959098f)" style="fill: #fca338"/>
    <path d="M 2273.184 7.2 
L 2839.68 7.2 
L 2839.68 285.696 
L 2273.184 285.696 
L 2273.184 7.2 
" clip-path="url(#pe40959098f)" style="fill: #fca338"/>
    <path d="M 2839.68 7.2 
L 3406.176 7.2 
L 3406.176 285.696 
L 2839.68 285.696 
L 2839.68 7.2 
" clip-path="url(#pe40959098f)" style="fill: #c8437b"/>
    <path d="M 3406.176 7.2 
L 3972.672 7.2 
L 3972.672 285.696 
L 3406.176 285.696 
L 3406.176 7.2 
" clip-path="url(#pe40959098f)" style="fill: #fdaf31"/>
    <path d="M 3972.672 7.2 
L 4539.168 7.2 
L 4539.168 285.696 
L 3972.672 285.696 
L 3972.672 7.2 
" clip-path="url(#pe40959098f)" style="fill: #f48849"/>
    <path d="M 4539.168 7.2 
L 5105.664 7.2 
L 5105.664 285.696 
L 4539.168 285.696 
L 4539.168 7.2 
" clip-path="url(#pe40959098f)" style="fill: #da5a6a"/>
    <path d="M 5105.664 7.2 
L 5672.16 7.2 
L 5672.16 285.696 
L 5105.664 285.696 
L 5105.664 7.2 
" clip-path="url(#pe40959098f)" style="fill: #b6308b"/>
    <path d="M 7.2 285.696 
L 573.696 285.696 
L 573.696 564.192 
L 7.2 564.192 
L 7.2 285.696 
" clip-path="url(#pe40959098f)" style="fill: #5801a4"/>
    <path d="M 573.696 285.696 
L 1140.192 285.696 
L 1140.192 564.192 
L 573.696 564.192 
L 573.696 285.696 
" clip-path="url(#pe40959098f)" style="fill: #f0f921"/>
    <path d="M 1140.192 285.696 
L 1706.688 285.696 
L 1706.688 564.192 
L 1140.192 564.192 
L 1140.192 285.696 
" clip-path="url(#pe40959098f)" style="fill: #b12a90"/>
    <path d="M 1706.688 285.696 
L 2273.184 285.696 
L 2273.184 564.192 
L 1706.688 564.192 
L 1706.688 285.696 
" clip-path="url(#pe40959098f)" style="fill: #5302a3"/>
    <path d="M 2273.184 285.696 
L 2839.68 285.696 
L 2839.68 564.192 
L 2273.184 564.192 
L 2273.184 285.696 
" clip-path="url(#pe40959098f)" style="fill: #5302a3"/>
    <path d="M 2839.68 285.696 
L 3406.176 285.696 
L 3406.176 564.192 
L 2839.68 564.192 
L 2839.68 285.696 
" clip-path="url(#pe40959098f)" style="fill: #8104a7"/>
    <path d="M 3406.176 285.696 
L 3972.672 285.696 
L 3972.672 564.192 
L 3406.176 564.192 
L 3406.176 285.696 
" clip-path="url(#pe40959098f)" style="fill: #c43e7f"/>
    <path d="M 3972.672 285.696 
L 4539.168 285.696 
L 4539.168 564.192 
L 3972.672 564.192 
L 3972.672 285.696 
" clip-path="url(#pe40959098f)" style="fill: #a82296"/>
    <path d="M 4539.168 285.696 
L 5105.664 285.696 
L 5105.664 564.192 
L 4539.168 564.192 
L 4539.168 285.696 
" clip-path="url(#pe40959098f)" style="fill: #c7427c"/>
    <path d="M 5105.664 285.696 
L 5672.16 285.696 
L 5672.16 564.192 
L 5105.664 564.192 
L 5105.664 285.696 
" clip-path="url(#pe40959098f)" style="fill: #db5c68"/>
    <path d="M 7.2 564.192 
L 573.696 564.192 
L 573.696 842.688 
L 7.2 842.688 
L 7.2 564.192 
" clip-path="url(#pe40959098f)" style="fill: #f48849"/>
    <path d="M 573.696 564.192 
L 1140.192 564.192 
L 1140.192 842.688 
L 573.696 842.688 
L 573.696 564.192 
" clip-path="url(#pe40959098f)" style="fill: #b12a90"/>
    <path d="M 1140.192 564.192 
L 1706.688 564.192 
L 1706.688 842.688 
L 1140.192 842.688 
L 1140.192 564.192 
" clip-path="url(#pe40959098f)" style="fill: #f0f921"/>
    <path d="M 1706.688 564.192 
L 2273.184 564.192 
L 2273.184 842.688 
L 1706.688 842.688 
L 1706.688 564.192 
" clip-path="url(#pe40959098f)" style="fill: #f9983e"/>
    <path d="M 2273.184 564.192 
L 2839.68 564.192 
L 2839.68 842.688 
L 2273.184 842.688 
L 2273.184 564.192 
" clip-path="url(#pe40959098f)" style="fill: #f9983e"/>
    <path d="M 2839.68 564.192 
L 3406.176 564.192 
L 3406.176 842.688 
L 2839.68 842.688 
L 2839.68 564.192 
" clip-path="url(#pe40959098f)" style="fill: #a01a9c"/>
    <path d="M 3406.176 564.192 
L 3972.672 564.192 
L 3972.672 842.688 
L 3406.176 842.688 
L 3406.176 564.192 
" clip-path="url(#pe40959098f)" style="fill: #fdca26"/>
    <path d="M 3972.672 564.192 
L 4539.168 564.192 
L 4539.168 842.688 
L 3972.672 842.688 
L 3972.672 564.192 
" clip-path="url(#pe40959098f)" style="fill: #f3f027"/>
    <path d="M 4539.168 564.192 
L 5105.664 564.192 
L 5105.664 842.688 
L 4539.168 842.688 
L 4539.168 564.192 
" clip-path="url(#pe40959098f)" style="fill: #8405a7"/>
    <path d="M 5105.664 564.192 
L 5672.16 564.192 
L 5672.16 842.688 
L 5105.664 842.688 
L 5105.664 564.192 
" clip-path="url(#pe40959098f)" style="fill: #4e02a2"/>
    <path d="M 7.2 842.688 
L 573.696 842.688 
L 573.696 1121.184 
L 7.2 1121.184 
L 7.2 842.688 
" clip-path="url(#pe40959098f)" style="fill: #fca338"/>
    <path d="M 573.696 842.688 
L 1140.192 842.688 
L 1140.192 1121.184 
L 573.696 1121.184 
L 573.696 842.688 
" clip-path="url(#pe40959098f)" style="fill: #5302a3"/>
    <path d="M 1140.192 842.688 
L 1706.688 842.688 
L 1706.688 1121.184 
L 1140.192 1121.184 
L 1140.192 842.688 
" clip-path="url(#pe40959098f)" style="fill: #f9983e"/>
    <path d="M 1706.688 842.688 
L 2273.184 842.688 
L 2273.184 1121.184 
L 1706.688 1121.184 
L 1706.688 842.688 
" clip-path="url(#pe40959098f)" style="fill: #f0f921"/>
    <path d="M 2273.184 842.688 
L 2839.68 842.688 
L 2839.68 1121.184 
L 2273.184 1121.184 
L 2273.184 842.688 
" clip-path="url(#pe40959098f)" style="fill: #f0f921"/>
    <path d="M 2839.68 842.688 
L 3406.176 842.688 
L 3406.176 1121.184 
L 2839.68 1121.184 
L 2839.68 842.688 
" clip-path="url(#pe40959098f)" style="fill: #ef7c51"/>
    <path d="M 3406.176 842.688 
L 3972.672 842.688 
L 3972.672 1121.184 
L 3406.176 1121.184 
L 3406.176 842.688 
" clip-path="url(#pe40959098f)" style="fill: #eb7655"/>
    <path d="M 3972.672 842.688 
L 4539.168 842.688 
L 4539.168 1121.184 
L 3972.672 1121.184 
L 3972.672 842.688 
" clip-path="url(#pe40959098f)" style="fill: #f9973f"/>
    <path d="M 4539.168 842.688 
L 5105.664 842.688 
L 5105.664 1121.184 
L 4539.168 1121.184 
L 4539.168 842.688 
" clip-path="url(#pe40959098f)" style="fill: #c5407e"/>
    <path d="M 5105.664 842.688 
L 5672.16 842.688 
L 5672.16 1121.184 
L 5105.664 1121.184 
L 5105.664 842.688 
" clip-path="url(#pe40959098f)" style="fill: #b12a90"/>
    <path d="M 7.2 1121.184 
L 573.696 1121.184 
L 573.696 1399.68 
L 7.2 1399.68 
L 7.2 1121.184 
" clip-path="url(#pe40959098f)" style="fill: #fca338"/>
    <path d="M 573.696 1121.184 
L 1140.192 1121.184 
L 1140.192 1399.68 
L 573.696 1399.68 
L 573.696 1121.184 
" clip-path="url(#pe40959098f)" style="fill: #5302a3"/>
    <path d="M 1140.192 1121.184 
L 1706.688 1121.184 
L 1706.688 1399.68 
L 1140.192 1399.68 
L 1140.192 1121.184 
" clip-path="url(#pe40959098f)" style="fill: #f9983e"/>
    <path d="M 1706.688 1121.184 
L 2273.184 1121.184 
L 2273.184 1399.68 
L 1706.688 1399.68 
L 1706.688 1121.184 
" clip-path="url(#pe40959098f)" style="fill: #f0f921"/>
    <path d="M 2273.184 1121.184 
L 2839.68 1121.184 
L 2839.68 1399.68 
L 2273.184 1399.68 
L 2273.184 1121.184 
" clip-path="url(#pe40959098f)" style="fill: #f0f921"/>
    <path d="M 2839.68 1121.184 
L 3406.176 1121.184 
L 3406.176 1399.68 
L 2839.68 1399.68 
L 2839.68 1121.184 
" clip-path="url(#pe40959098f)" style="fill: #ef7c51"/>
    <path d="M 3406.176 1121.184 
L 3972.672 1121.184 
L 3972.672 1399.68 
L 3406.176 1399.68 
L 3406.176 1121.184 
" clip-path="url(#pe40959098f)" style="fill: #eb7655"/>
    <path d="M 3972.672 1121.184 
L 4539.168 1121.184 
L 4539.168 1399.68 
L 3972.672 1399.68 
L 3972.672 1121.184 
" clip-path="url(#pe40959098f)" style="fill: #f9973f"/>
    <path d="M 4539.168 1121.184 
L 5105.664 1121.184 
L 5105.664 1399.68 
L 4539.168 1399.68 
L 4539.168 1121.184 
" clip-path="url(#pe40959098f)" style="fill: #c5407e"/>
    <path d="M 5105.664 1121.184 
L 5672.16 1121.184 
L 5672.16 1399.68 
L 5105.664 1399.68 
L 5105.664 1121.184 
" clip-path="url(#pe40959098f)" style="fill: #b12a90"/>
    <path d="M 7.2 1399.68 
L 573.696 1399.68 
L 573.696 1678.176 
L 7.2 1678.176 
L 7.2 1399.68 
" clip-path="url(#pe40959098f)" style="fill: #c8437b"/>
    <path d="M 573.696 1399.68 
L 1140.192 1399.68 
L 1140.192 1678.176 
L 573.696 1678.176 
L 573.696 1399.68 
" clip-path="url(#pe40959098f)" style="fill: #8104a7"/>
    <path d="M 1140.192 1399.68 
L 1706.688 1399.68 
L 1706.688 1678.176 
L 1140.192 1678.176 
L 1140.192 1399.68 
" clip-path="url(#pe40959098f)" style="fill: #a01a9c"/>
    <path d="M 1706.688 1399.68 
L 2273.184 1399.68 
L 2273.184 1678.176 
L 1706.688 1678.176 
L 1706.688 1399.68 
" clip-path="url(#pe40959098f)" style="fill: #ef7c51"/>
    <path d="M 2273.184 1399.68 
L 2839.68 1399.68 
L 2839.68 1678.176 
L 2273.184 1678.176 
L 2273.184 1399.68 
" clip-path="url(#pe40959098f)" style="fill: #ef7c51"/>
    <path d="M 2839.68 1399.68 
L 3406.176 1399.68 
L 3406.176 1678.176 
L 2839.68 1678.176 
L 2839.68 1399.68 
" clip-path="url(#pe40959098f)" style="fill: #f0f921"/>
    <path d="M 3406.176 1399.68 
L 3972.672 1399.68 
L 3972.672 1678.176 
L 3406.176 1678.176 
L 3406.176 1399.68 
" clip-path="url(#pe40959098f)" style="fill: #8d0ba5"/>
    <path d="M 3972.672 1399.68 
L 4539.168 1399.68 
L 4539.168 1678.176 
L 3972.672 1678.176 
L 3972.672 1399.68 
" clip-path="url(#pe40959098f)" style="fill: #9a169f"/>
    <path d="M 4539.168 1399.68 
L 5105.664 1399.68 
L 5105.664 1678.176 
L 4539.168 1678.176 
L 4539.168 1399.68 
" clip-path="url(#pe40959098f)" style="fill: #c33d80"/>
    <path d="M 5105.664 1399.68 
L 5672.16 1399.68 
L 5672.16 1678.176 
L 5105.664 1678.176 
L 5105.664 1399.68 
" clip-path="url(#pe40959098f)" style="fill: #d5546e"/>
    <path d="M 7.2 1678.176 
L 573.696 1678.176 
L 573.696 1956.672 
L 7.2 1956.672 
L 7.2 1678.176 
" clip-path="url(#pe40959098f)" style="fill: #fdaf31"/>
    <path d="M 573.696 1678.176 
L 1140.192 1678.176 
L 1140.192 1956.672 
L 573.696 1956.672 
L 573.696 1678.176 
" clip-path="url(#pe40959098f)" style="fill: #c43e7f"/>
    <path d="M 1140.192 1678.176 
L 1706.688 1678.176 
L 1706.688 1956.672 
L 1140.192 1956.672 
L 1140.192 1678.176 
" clip-path="url(#pe40959098f)" style="fill: #fdca26"/>
    <path d="M 1706.688 1678.176 
L 2273.184 1678.176 
L 2273.184 1956.672 
L 1706.688 1956.672 
L 1706.688 1678.176 
" clip-path="url(#pe40959098f)" style="fill: #eb7655"/>
    <path d="M 2273.184 1678.176 
L 2839.68 1678.176 
L 2839.68 1956.672 
L 2273.184 1956.672 
L 2273.184 1678.176 
" clip-path="url(#pe40959098f)" style="fill: #eb7655"/>
    <path d="M 2839.68 1678.176 
L 3406.176 1678.176 
L 3406.176 1956.672 
L 2839.68 1956.672 
L 2839.68 1678.176 
" clip-path="url(#pe40959098f)" style="fill: #8d0ba5"/>
    <path d="M 3406.176 1678.176 
L 3972.672 1678.176 
L 3972.672 1956.672 
L 3406.176 1956.672 
L 3406.176 1678.176 
" clip-path="url(#pe40959098f)" style="fill: #f0f921"/>
    <path d="M 3972.672 1678.176 
L 4539.168 1678.176 
L 4539.168 1956.672 
L 3972.672 1956.672 
L 3972.672 1678.176 
" clip-path="url(#pe40959098f)" style="fill: #fec029"/>
    <path d="M 4539.168 1678.176 
L 5105.664 1678.176 
L 5105.664 1956.672 
L 4539.168 1956.672 
L 4539.168 1678.176 
" clip-path="url(#pe40959098f)" style="fill: #b02991"/>
    <path d="M 5105.664 1678.176 
L 5672.16 1678.176 
L 5672.16 1956.672 
L 5105.664 1956.672 
L 5105.664 1678.176 
" clip-path="url(#pe40959098f)" style="fill: #8808a6"/>
    <path d="M 7.2 1956.672 
L 573.696 1956.672 
L 573.696 2235.168 
L 7.2 2235.168 
L 7.2 1956.672 
" clip-path="url(#pe40959098f)" style="fill: #f48849"/>
    <path d="M 573.696 1956.672 
L 1140.192 1956.672 
L 1140.192 2235.168 
L 573.696 2235.168 
L 573.696 1956.672 
" clip-path="url(#pe40959098f)" style="fill: #a82296"/>
    <path d="M 1140.192 1956.672 
L 1706.688 1956.672 
L 1706.688 2235.168 
L 1140.192 2235.168 
L 1140.192 1956.672 
" clip-path="url(#pe40959098f)" style="fill: #f3f027"/>
    <path d="M 1706.688 1956.672 
L 2273.184 1956.672 
L 2273.184 2235.168 
L 1706.688 2235.168 
L 1706.688 1956.672 
" clip-path="url(#pe40959098f)" style="fill: #f9973f"/>
    <path d="M 2273.184 1956.672 
L 2839.68 1956.672 
L 2839.68 2235.168 
L 2273.184 2235.168 
L 2273.184 1956.672 
" clip-path="url(#pe40959098f)" style="fill: #f9973f"/>
    <path d="M 2839.68 1956.672 
L 3406.176 1956.672 
L 3406.176 2235.168 
L 2839.68 2235.168 
L 2839.68 1956.672 
" clip-path="url(#pe40959098f)" style="fill: #9a169f"/>
    <path d="M 3406.176 1956.672 
L 3972.672 1956.672 
L 3972.672 2235.168 
L 3406.176 2235.168 
L 3406.176 1956.672 
" clip-path="url(#pe40959098f)" style="fill: #fec029"/>
    <path d="M 3972.672 1956.672 
L 4539.168 1956.672 
L 4539.168 2235.168 
L 3972.672 2235.168 
L 3972.672 1956.672 
" clip-path="url(#pe40959098f)" style="fill: #f0f921"/>
    <path d="M 4539.168 1956.672 
L 5105.664 1956.672 
L 5105.664 2235.168 
L 4539.168 2235.168 
L 4539.168 1956.672 
" clip-path="url(#pe40959098f)" style="fill: #7801a8"/>
    <path d="M 5105.664 1956.672 
L 5672.16 1956.672 
L 5672.16 2235.168 
L 5105.664 2235.168 
L 5105.664 1956.672 
" clip-path="url(#pe40959098f)" style="fill: #5102a3"/>
    <path d="M 7.2 2235.168 
L 573.696 2235.168 
L 573.696 2513.664 
L 7.2 2513.664 
L 7.2 2235.168 
" clip-path="url(#pe40959098f)" style="fill: #da5a6a"/>
    <path d="M 573.696 2235.168 
L 1140.192 2235.168 
L 1140.192 2513.664 
L 573.696 2513.664 
L 573.696 2235.168 
" clip-path="url(#pe40959098f)" style="fill: #c7427c"/>
    <path d="M 1140.192 2235.168 
L 1706.688 2235.168 
L 1706.688 2513.664 
L 1140.192 2513.664 
L 1140.192 2235.168 
" clip-path="url(#pe40959098f)" style="fill: #8405a7"/>
    <path d="M 1706.688 2235.168 
L 2273.184 2235.168 
L 2273.184 2513.664 
L 1706.688 2513.664 
L 1706.688 2235.168 
" clip-path="url(#pe40959098f)" style="fill: #c5407e"/>
    <path d="M 2273.184 2235.168 
L 2839.68 2235.168 
L 2839.68 2513.664 
L 2273.184 2513.664 
L 2273.184 2235.168 
" clip-path="url(#pe40959098f)" style="fill: #c5407e"/>
    <path d="M 2839.68 2235.168 
L 3406.176 2235.168 
L 3406.176 2513.664 
L 2839.68 2513.664 
L 2839.68 2235.168 
" clip-path="url(#pe40959098f)" style="fill: #c33d80"/>
    <path d="M 3406.176 2235.168 
L 3972.672 2235.168 
L 3972.672 2513.664 
L 3406.176 2513.664 
L 3406.176 2235.168 
" clip-path="url(#pe40959098f)" style="fill: #b02991"/>
    <path d="M 3972.672 2235.168 
L 4539.168 2235.168 
L 4539.168 2513.664 
L 3972.672 2513.664 
L 3972.672 2235.168 
" clip-path="url(#pe40959098f)" style="fill: #7801a8"/>
    <path d="M 4539.168 2235.168 
L 5105.664 2235.168 
L 5105.664 2513.664 
L 4539.168 2513.664 
L 4539.168 2235.168 
" clip-path="url(#pe40959098f)" style="fill: #f0f921"/>
    <path d="M 5105.664 2235.168 
L 5672.16 2235.168 
L 5672.16 2513.664 
L 5105.664 2513.664 
L 5105.664 2235.168 
" clip-path="url(#pe40959098f)" style="fill: #fada24"/>
    <path d="M 7.2 2513.664 
L 573.696 2513.664 
L 573.696 2792.16 
L 7.2 2792.16 
L 7.2 2513.664 
" clip-path="url(#pe40959098f)" style="fill: #b6308b"/>
    <path d="M 573.696 2513.664 
L 1140.192 2513.664 
L 1140.192 2792.16 
L 573.696 2792.16 
L 573.696 2513.664 
" clip-path="url(#pe40959098f)" style="fill: #db5c68"/>
    <path d="M 1140.192 2513.664 
L 1706.688 2513.664 
L 1706.688 2792.16 
L 1140.192 2792.16 
L 1140.192 2513.664 
" clip-path="url(#pe40959098f)" style="fill: #4e02a2"/>
    <path d="M 1706.688 2513.664 
L 2273.184 2513.664 
L 2273.184 2792.16 
L 1706.688 2792.16 
L 1706.688 2513.664 
" clip-path="url(#pe40959098f)" style="fill: #b12a90"/>
    <path d="M 2273.184 2513.664 
L 2839.68 2513.664 
L 2839.68 2792.16 
L 2273.184 2792.16 
L 2273.184 2513.664 
" clip-path="url(#pe40959098f)" style="fill: #b12a90"/>
    <path d="M 2839.68 2513.664 
L 3406.176 2513.664 
L 3406.176 2792.16 
L 2839.68 2792.16 
L 2839.68 2513.664 
" clip-path="url(#pe40959098f)" style="fill: #d5546e"/>
    <path d="M 3406.176 2513.664 
L 3972.672 2513.664 
L 3972.672 2792.16 
L 3406.176 2792.16 
L 3406.176 2513.664 
" clip-path="url(#pe40959098f)" style="fill: #8808a6"/>
    <path d="M 3972.672 2513.664 
L 4539.168 2513.664 
L 4539.168 2792.16 
L 3972.672 2792.16 
L 3972.672 2513.664 
" clip-path="url(#pe40959098f)" style="fill: #5102a3"/>
    <path d="M 4539.168 2513.664 
L 5105.664 2513.664 
L 5105.664 2792.16 
L 4539.168 2792.16 
L 4539.168 2513.664 
" clip-path="url(#pe40959098f)" style="fill: #fada24"/>
    <path d="M 5105.664 2513.664 
L 5672.16 2513.664 
L 5672.16 2792.16 
L 5105.664 2792.16 
L 5105.664 2513.664 
" clip-path="url(#pe40959098f)" style="fill: #f0f921"/>
   </g>
   <g id="matplotlib.axis_1"/>
   <g id="matplotlib.axis_2"/>
  </g>
 </g>
 <defs>
  <clipPath id="pe40959098f">
   <rect x="7.2" y="7.2" width="5664.96" height="2784.96"/>
  </clipPath>
 </defs>
</svg>
